  0
SECTION
  2
HEADER
  9
$ACADVER
  1
AC1018
  9
$ACADMAINTVER
 70
     0
  9
$DWGCODEPAGE
  3
ANSI_1252
  9
$EXTMIN
 10
224395.7735
 20
1137541.6967
 30
0.0
  9
$EXTMAX
 10
276662.3462
 20
1175894.0802
 30
0.0
  9
$LIMMIN
 10
0.0
 20
0.0
  9
$LIMMAX
 10
12.0
 20
9.0
  9
$ORTHOMODE
 70
     0
  9
$REGENMODE
 70
     1
  9
$FILLMODE
 70
     1
  9
$QTEXTMODE
 70
     0
  9
$MIRRTEXT
 70
     1
  9
$LTSCALE
 40
1.0
  9
$ATTMODE
 70
     1
  9
$TEXTSIZE
 40
0.2
  9
$TRACEWID
 40
0.05
  9
$TEXTSTYLE
  7
Standard
  9
$CLAYER
  8
0
  9
$CELTYPE
  6
ByLayer
  9
$CECOLOR
 62
   256
  9
$CELTSCALE
 40
1.0
  9
$DISPSILH
 70
     0
  9
$LUNITS
 70
     2
  9
$LUPREC
 70
     4
  9
$SKETCHINC
 40
0.1
  9
$FILLETRAD
 40
0.5
  9
$AUNITS
 70
     0
  9
$AUPREC
 70
     0
  9
$MENU
  1
.
  9
$ELEVATION
 40
0.0
  9
$PELEVATION
 40
0.0
  9
$THICKNESS
 40
0.0
  9
$LIMCHECK
 70
     0
  9
$CHAMFERA
 40
0.5
  9
$CHAMFERB
 40
0.5
  9
$CHAMFERC
 40
1.0
  9
$CHAMFERD
 40
0.0
  9
$SKPOLY
 70
     0
  9
$ANGBASE
 50
0.0
  9
$ANGDIR
 70
     0
  9
$PDMODE
 70
     0
  9
$PDSIZE
 40
0.0
  9
$PLINEWID
 40
0.0
  9
$SPLFRAME
 70
     0
  9
$SPLINETYPE
 70
     6
  9
$SPLINESEGS
 70
     8
  9
$HANDSEED
  5
00020038
  9
$SURFTAB1
 70
     6
  9
$SURFTAB2
 70
     6
  9
$SURFTYPE
 70
     6
  9
$SURFU
 70
     6
  9
$SURFV
 70
     6
  9
$UCSBASE
  2

  9
$UCSNAME
  2

  9
$UCSORG
 10
0.0
 20
0.0
 30
0.0
  9
$UCSXDIR
 10
1.0
 20
0.0
 30
0.0
  9
$UCSYDIR
 10
0.0
 20
1.0
 30
0.0
  9
$UCSORTHOREF
  2

  9
$UCSORTHOVIEW
 70
     0
  9
$UCSORGTOP
 10
0.0
 20
0.0
 30
0.0
  9
$UCSORGBOTTOM
 10
0.0
 20
0.0
 30
0.0
  9
$UCSORGLEFT
 10
0.0
 20
0.0
 30
0.0
  9
$UCSORGRIGHT
 10
0.0
 20
0.0
 30
0.0
  9
$UCSORGFRONT
 10
0.0
 20
0.0
 30
0.0
  9
$UCSORGBACK
 10
0.0
 20
0.0
 30
0.0
  9
$PUCSBASE
  2

  9
$PUCSNAME
  2

  9
$PUCSORG
 10
0.0
 20
0.0
 30
0.0
  9
$PUCSXDIR
 10
1.0
 20
0.0
 30
0.0
  9
$PUCSYDIR
 10
0.0
 20
1.0
 30
0.0
  9
$PUCSORTHOREF
  2

  9
$PUCSORTHOVIEW
 70
     0
  9
$PUCSORGTOP
 10
0.0
 20
0.0
 30
0.0
  9
$PUCSORGBOTTOM
 10
0.0
 20
0.0
 30
0.0
  9
$PUCSORGLEFT
 10
0.0
 20
0.0
 30
0.0
  9
$PUCSORGRIGHT
 10
0.0
 20
0.0
 30
0.0
  9
$PUCSORGFRONT
 10
0.0
 20
0.0
 30
0.0
  9
$PUCSORGBACK
 10
0.0
 20
0.0
 30
0.0
  9
$WORLDVIEW
 70
     1
  9
$SHADEDGE
 70
     3
  9
$SHADEDIF
 70
    70
  9
$TILEMODE
 70
     1
  9
$MAXACTVP
 70
    64
  9
$PINSBASE
 10
0.0
 20
0.0
 30
0.0
  9
$PLIMCHECK
 70
     0
  9
$PEXTMIN
 10
1.000000000000000E+20
 20
1.000000000000000E+20
 30
1.000000000000000E+20
  9
$PEXTMAX
 10
-1.000000000000000E+20
 20
-1.000000000000000E+20
 30
-1.000000000000000E+20
  9
$PLIMMIN
 10
0.0
 20
0.0
  9
$PLIMMAX
 10
12.0
 20
9.0
  9
$UNITMODE
 70
     0
  9
$VISRETAIN
 70
     1
  9
$PLINEGEN
 70
     0
  9
$PSLTSCALE
 70
     1
  9
$TREEDEPTH
 70
  3020
  9
$CMLSTYLE
  2
Standard
  9
$CMLJUST
 70
     0
  9
$CMLSCALE
 40
1.0
  9
$PROXYGRAPHICS
 70
     1
  9
$MEASUREMENT
 70
     0
  9
$CELWEIGHT
370
    -1
  9
$ENDCAPS
280
     0
  9
$JOINSTYLE
280
     0
  9
$LWDISPLAY
290
     0
  9
$INSUNITS
 70
     1
  9
$HYPERLINKBASE
  1

  9
$STYLESHEET
  1

  9
$XEDIT
290
     1
  9
$CEPSNTYPE
380
     0
  9
$PSTYLEMODE
290
     1
  9
$EXTNAMES
290
     1
  9
$PSVPSCALE
 40
0.0
  9
$OLESTARTUP
290
     0
  9
$SORTENTS
280
   127
  9
$INDEXCTL
280
     0
  9
$HIDETEXT
280
     1
  9
$XCLIPFRAME
290
     0
  9
$HALOGAP
280
     0
  9
$OBSCOLOR
 70
   257
  9
$OBSLTYPE
280
     0
  9
$INTERSECTIONDISPLAY
280
     0
  9
$INTERSECTIONCOLOR
 70
   257
  9
$DIMASSOC
280
     2
  9
$PROJECTNAME
  1

  0
ENDSEC
  0
SECTION
  2
CLASSES
  0
CLASS
  1
ACDBDICTIONARYWDFLT
  2
AcDbDictionaryWithDefault
  3
ObjectDBX Classes
 90
        0
 91
        4
280
     0
281
     0
  0
ENDSEC
  0
SECTION
  2
TABLES
  0
TABLE
  2
VPORT
  5
8
330
0
100
AcDbSymbolTable
 70
     1
  0
VPORT
  5
29
330
8
100
AcDbSymbolTableRecord
100
AcDbViewportTableRecord
  2
*Active
 70
     0
 10
0.0
 20
0.0
 11
1.0
 21
1.0
 12
80.25
 22
106.4409457059851
 13
0.0
 23
0.0
 14
0.5
 24
0.5
 15
0.5
 25
0.5
 16
0.0
 26
0.0
 36
1.0
 17
0.0
 27
0.0
 37
0.0
 40
113.3818914119703
 41
0.8863849310366128
 42
50.0
 43
0.0
 44
0.0
 50
0.0
 51
0.0
 71
     0
 72
  1000
 73
     1
 74
     3
 75
     0
 76
     0
 77
     0
 78
     0
281
     0
 65
     1
110
0.0
120
0.0
130
0.0
111
1.0
121
0.0
131
0.0
112
0.0
122
1.0
132
0.0
 79
     0
146
0.0
  0
ENDTAB
  0
TABLE
  2
LTYPE
  5
5
330
0
100
AcDbSymbolTable
 70
     1
  0
LTYPE
  5
14
330
5
100
AcDbSymbolTableRecord
100
AcDbLinetypeTableRecord
  2
ByBlock
 70
     0
  3

 72
    65
 73
     0
 40
0.0
  0
LTYPE
  5
15
330
5
100
AcDbSymbolTableRecord
100
AcDbLinetypeTableRecord
  2
ByLayer
 70
     0
  3

 72
    65
 73
     0
 40
0.0
  0
LTYPE
  5
16
330
5
100
AcDbSymbolTableRecord
100
AcDbLinetypeTableRecord
  2
Continuous
 70
     0
  3
Solid line
 72
    65
 73
     0
 40
0.0
  0
ENDTAB
  0
TABLE
  2
LAYER
  5
2
330
0
100
AcDbSymbolTable
 70
     1
  0
LAYER
  5
10
330
2
100
AcDbSymbolTableRecord
100
AcDbLayerTableRecord
  2
0
 70
     0
 62
     7
  6
Continuous
370
    -3
390
F
  0
ENDTAB
  0
TABLE
  2
STYLE
  5
3
330
0
100
AcDbSymbolTable
 70
     1
  0
STYLE
  5
11
330
3
100
AcDbSymbolTableRecord
100
AcDbTextStyleTableRecord
  2
Standard
 70
     0
 40
0.0
 41
1.0
 50
0.0
 71
     0
 42
0.2
  3
txt
  4

  0
ENDTAB
  0
TABLE
  2
VIEW
  5
6
330
0
100
AcDbSymbolTable
 70
     0
  0
ENDTAB
  0
TABLE
  2
UCS
  5
7
330
0
100
AcDbSymbolTable
 70
     0
  0
ENDTAB
  0
TABLE
  2
APPID
  5
9
330
0
100
AcDbSymbolTable
 70
     1
  0
APPID
  5
12
330
9
100
AcDbSymbolTableRecord
100
AcDbRegAppTableRecord
  2
ACAD
 70
     0
  0
ENDTAB
  0
TABLE
  2
DIMSTYLE
  5
A
330
0
100
AcDbSymbolTable
 70
     1
100
AcDbDimStyleTable
  0
DIMSTYLE
105
27
330
A
100
AcDbSymbolTableRecord
100
AcDbDimStyleTableRecord
  2
Standard
 70
     0
340
11
  0
ENDTAB
  0
TABLE
  2
BLOCK_RECORD
  5
1
330
0
100
AcDbSymbolTable
 70
     1
  0
BLOCK_RECORD
  5
1F
330
1
100
AcDbSymbolTableRecord
100
AcDbBlockTableRecord
  2
*Model_Space
340
22
  0
BLOCK_RECORD
  5
1B
330
1
100
AcDbSymbolTableRecord
100
AcDbBlockTableRecord
  2
*Paper_Space
340
1E
  0
ENDTAB
  0
ENDSEC
  0
SECTION
  2
BLOCKS
  0
BLOCK
  5
20
330
1F
100
AcDbEntity
  8
0
100
AcDbBlockBegin
  2
*Model_Space
 70
     0
 10
0.0
 20
0.0
 30
0.0
  3
*Model_Space
  1

  0
ENDBLK
  5
21
330
1F
100
AcDbEntity
  8
0
100
AcDbBlockEnd
  0
BLOCK
  5
1C
330
1B
100
AcDbEntity
 67
     1
  8
0
100
AcDbBlockBegin
  2
*Paper_Space
 70
     0
 10
0.0
 20
0.0
 30
0.0
  3
*Paper_Space
  1

  0
ENDBLK
  5
1D
330
1B
100
AcDbEntity
 67
     1
  8
0
100
AcDbBlockEnd
  0
ENDSEC
  0
SECTION
  2
ENTITIES
  0
LWPOLYLINE
  5
20000
100
AcDbEntity
  8
0
100
AcDbPolyline
 70
0
 90
7
 10
225722.9834
 20
1154836.0465
 10
226178.6818
 20
1154895.4844
 10
226594.7588
 20
1154994.5542
 10
226927.8332
 20
1155180.5963
 10
227268.2299
 20
1155255.3511
 10
227581.4236
 20
1155354.261
 10
227927.5841
 20
1155585.044
  0
LWPOLYLINE
  5
20001
100
AcDbEntity
  8
0
100
AcDbPolyline
 70
0
 90
8
 10
251939.2271
 20
1149465.4996
 10
252170.6467
 20
1150000.1908
 10
252346.209
 20
1150391.2312
 10
252570.7515
 20
1150814.825
 10
252764.5454
 20
1151150.4967
 10
252882.0816
 20
1151354.0752
 10
253137.0596
 20
1151624.9901
 10
253653.7442
 20
1152117.9097
  0
LWPOLYLINE
  5
20002
100
AcDbEntity
  8
0
100
AcDbPolyline
 70
0
 90
2
 10
241941.1409
 20
1153518.3547
 10
241941.1409
 20
1153536.1511
  0
LWPOLYLINE
  5
20003
100
AcDbEntity
  8
0
100
AcDbPolyline
 70
0
 90
11
 10
244047.7149
 20
1167721.1737
 10
244843.5544
 20
1168795.625
 10
245353.5104
 20
1169552.591
 10
245720.0381
 20
1170030.6836
 10
246102.5134
 20
1170636.2604
 10
246261.8726
 20
1171162.1533
 10
246309.682
 20
1171672.1095
 10
246293.751
 20
1172261.7495
 10
246309.682
 20
1172899.1998
 10
246421.2318
 20
1173456.9662
 10
246492.6655
 20
1174173.9903
  0
LWPOLYLINE
  5
20004
100
AcDbEntity
  8
0
100
AcDbPolyline
 70
0
 90
12
 10
258400.3078
 20
1162598.2065
 10
258971.9675
 20
1162630.8699
 10
259625.2857
 20
1162745.2066
 10
260049.9467
 20
1162875.88
 10
260425.6109
 20
1162924.88
 10
260833.9369
 20
1163153.5535
 10
261029.9323
 20
1163398.5636
 10
261421.9315
 20
1163806.9105
 10
261666.9238
 20
1164100.9106
 10
261818.0042
 20
1164336.7326
 10
262601.9943
 20
1164851.2479
 10
262830.6598
 20
1164965.5846
  0
LWPOLYLINE
  5
20005
100
AcDbEntity
  8
0
100
AcDbPolyline
 70
0
 90
9
 10
247246.2697
 20
1159475.1722
 10
248348.5659
 20
1161515.5569
 10
249093.5532
 20
1163753.0914
 10
250843.61
 20
1166086.5065
 10
252071.1606
 20
1167732.7614
 10
252855.7609
 20
1169092.8245
 10
253036.6005
 20
1169726.1256
 10
253482.5853
 20
1170370.5845
 10
253827.7151
 20
1171504.8836
  0
LWPOLYLINE
  5
20006
100
AcDbEntity
  8
0
100
AcDbPolyline
 70
0
 90
2
 10
233449.3972
 20
1141441.053
 10
234580.2488
 20
1143325.8893
  0
LWPOLYLINE
  5
20007
100
AcDbEntity
  8
0
100
AcDbPolyline
 70
0
 90
6
 10
251045.023
 20
1144843.5404
 10
251136.2138
 20
1144972.7341
 10
251652.9396
 20
1146036.6276
 10
252139.263
 20
1147161.3086
 10
252443.2213
 20
1148012.4254
 10
252686.383
 20
1148741.9469
  0
LWPOLYLINE
  5
20008
100
AcDbEntity
  8
0
100
AcDbPolyline
 70
0
 90
9
 10
233983.093
 20
1146651.5024
 10
233949.953
 20
1146452.6229
 10
233817.3763
 20
1146220.6001
 10
233668.2255
 20
1145972.0107
 10
233585.363
 20
1145756.5646
 10
233568.7888
 20
1145524.5418
 10
233452.7863
 20
1144911.3466
 10
233287.0695
 20
1144546.7508
 10
233253.9213
 20
1144099.2819
  0
LWPOLYLINE
  5
20009
100
AcDbEntity
  8
0
100
AcDbPolyline
 70
0
 90
9
 10
234259.1639
 20
1150105.9793
 10
233629.8988
 20
1149480.4066
 10
233452.0194
 20
1149142.4254
 10
233274.1401
 20
1148928.9688
 10
233185.2086
 20
1148608.774
 10
233185.2086
 20
1148110.7054
 10
233121.3446
 20
1147828.1729
 10
233187.6329
 20
1147330.9841
 10
233287.0695
 20
1146784.0854
  0
LWPOLYLINE
  5
2000A
100
AcDbEntity
  8
0
100
AcDbPolyline
 70
0
 90
4
 10
233078.4827
 20
1151757.3131
 10
232953.9704
 20
1151615.0021
 10
232882.817
 20
1151401.5456
 10
232826.0114
 20
1150922.4431
  0
LWPOLYLINE
  5
2000B
100
AcDbEntity
  8
0
100
AcDbPolyline
 70
0
 90
13
 10
234834.8063
 20
1154632.8078
 10
234590.5974
 20
1154179.2502
 10
234538.2692
 20
1153865.2541
 10
234381.2684
 20
1153778.0318
 10
234359.186
 20
1153518.3547
 10
234288.0326
 20
1153322.6845
 10
234234.6737
 20
1152984.7133
 10
234252.46
 20
1152628.9457
 10
234270.2463
 20
1152397.6928
 10
234252.46
 20
1152130.8671
 10
234163.5203
 20
1151952.9833
 10
233950.0684
 20
1151739.5268
 10
233807.7699
 20
1151668.3712
  0
LWPOLYLINE
  5
2000C
100
AcDbEntity
  8
0
100
AcDbPolyline
 70
0
 90
2
 10
243693.4487
 20
1139074.1848
 10
245737.239
 20
1141479.5751
  0
LWPOLYLINE
  5
2000D
100
AcDbEntity
  8
0
100
AcDbPolyline
 70
0
 90
6
 10
228477.5407
 20
1156671.3629
 10
228678.36
 20
1157026.6806
 10
228771.0515
 20
1157219.7813
 10
228840.564
 20
1157451.5141
 10
228910.0764
 20
1157629.1679
 10
228987.3153
 20
1157953.5919
  0
LWPOLYLINE
  5
2000E
100
AcDbEntity
  8
0
100
AcDbPolyline
 70
0
 90
4
 10
228037.2786
 20
1155844.8611
 10
228168.5854
 20
1156022.525
 10
228253.5423
 20
1156177.0035
 10
228408.02
 20
1156470.5338
  0
LWPOLYLINE
  5
2000F
100
AcDbEntity
  8
0
100
AcDbPolyline
 70
0
 90
6
 10
238785.5634
 20
1138142.6244
 10
238980.2148
 20
1138490.2236
 10
239299.9887
 20
1138976.8646
 10
239411.2169
 20
1139393.9797
 10
239494.6318
 20
1139685.9602
 10
239466.8269
 20
1139964.0436
  0
LWPOLYLINE
  5
20010
100
AcDbEntity
  8
0
100
AcDbPolyline
 70
0
 90
9
 10
238827.2709
 20
1141020.7385
 10
239133.1505
 20
1141048.5529
 10
239508.5426
 20
1141090.2644
 10
239897.8289
 20
1141229.3061
 10
240189.806
 20
1141340.5334
 10
240523.4823
 20
1141507.3795
 10
240801.5487
 20
1141632.514
 10
241010.1026
 20
1141813.2672
 10
241079.615
 20
1141952.3089
  0
LWPOLYLINE
  5
20011
100
AcDbEntity
  8
0
100
AcDbPolyline
 70
0
 90
6
 10
246891.2531
 20
1140381.8386
 10
247577.5712
 20
1141485.8939
 10
248114.6725
 20
1142381.0816
 10
249039.6996
 20
1143343.3958
 10
249621.5594
 20
1144253.5005
 10
249746.4097
 20
1144457.259
  0
LWPOLYLINE
  5
20012
100
AcDbEntity
  8
0
100
AcDbPolyline
 70
0
 90
6
 10
250337.7109
 20
1145581.3602
 10
250561.5032
 20
1146133.3879
 10
250934.4957
 20
1146968.8878
 10
251217.9713
 20
1147744.7199
 10
251426.855
 20
1148311.6645
 10
251605.8888
 20
1148729.4195
  0
LWPOLYLINE
  5
20013
100
AcDbEntity
  8
0
100
AcDbPolyline
 70
0
 90
3
 10
241016.0066
 20
1137541.6967
 10
241102.7941
 20
1140275.6302
 10
241146.192
 20
1142980.6296
  0
LWPOLYLINE
  5
20014
100
AcDbEntity
  8
0
100
AcDbPolyline
 70
0
 90
4
 10
245407.834
 20
1138326.6569
 10
245494.6215
 20
1139577.9022
 10
245624.7986
 20
1140988.2651
 10
245740.5208
 20
1143295.4755
  0
LWPOLYLINE
  5
20015
100
AcDbEntity
  8
0
100
AcDbPolyline
 70
0
 90
4
 10
241119.0714
 20
1143007.974
 10
241032.2839
 20
1146421.7792
 10
241119.0714
 20
1149517.3391
 10
241119.0714
 20
1150009.159
  0
LWPOLYLINE
  5
20016
100
AcDbEntity
  8
0
100
AcDbPolyline
 70
0
 90
3
 10
245747.7524
 20
1143384.0675
 10
246123.8289
 20
1150153.8095
 10
246123.8289
 20
1150616.6953
  0
LWPOLYLINE
  5
20017
100
AcDbEntity
  8
0
100
AcDbPolyline
 70
0
 90
6
 10
252847.2924
 20
1152794.402
 10
253233.0248
 20
1152678.6756
 10
253708.7523
 20
1152427.9466
 10
254094.4846
 20
1152151.4929
 10
254415.9241
 20
1151907.1926
 10
254460.9299
 20
1151791.4662
  0
LWPOLYLINE
  5
20018
100
AcDbEntity
  8
0
100
AcDbPolyline
 70
0
 90
18
 10
236495.2472
 20
1149963.3683
 10
236380.498
 20
1150307.6182
 10
236316.7577
 20
1150792.1196
 10
236291.2533
 20
1151098.1173
 10
236393.2544
 20
1151646.3757
 10
236469.7511
 20
1152487.8844
 10
236431.4986
 20
1153087.1325
 10
236342.2538
 20
1153609.8861
 10
236189.2604
 20
1154043.3878
 10
236125.5118
 20
1154629.8984
 10
236151.0079
 20
1155649.9008
 10
236151.0079
 20
1156172.6544
 10
236100.0156
 20
1158977.6735
 10
236163.756
 20
1160086.9277
 10
236074.5112
 20
1160456.6824
 10
236010.7626
 20
1161017.6882
 10
235870.5173
 20
1161578.694
 10
235870.5173
 20
1162075.9428
  0
LWPOLYLINE
  5
20019
100
AcDbEntity
  8
0
100
AcDbPolyline
 70
0
 90
11
 10
253314.0732
 20
1163895.4425
 10
253828.0202
 20
1163543.0042
 10
254488.8091
 20
1163087.7669
 10
254782.5014
 20
1162823.4407
 10
255252.3991
 20
1162573.7915
 10
255751.6602
 20
1162426.9414
 10
256339.0364
 20
1162309.4653
 10
256867.6693
 20
1162294.7783
 10
257337.5669
 20
1162338.8393
 10
257778.0929
 20
1162441.6284
 10
258247.9906
 20
1162529.7404
  0
LWPOLYLINE
  5
2001A
100
AcDbEntity
  8
0
100
AcDbPolyline
 70
0
 90
23
 10
236471.1858
 20
1152375.1174
 10
236676.7712
 20
1151699.6049
 10
236676.7712
 20
1151567.4418
 10
236882.3484
 20
1151317.8026
 10
237102.6114
 20
1151141.5785
 10
237410.9812
 20
1150921.3033
 10
237660.6159
 20
1150656.9771
 10
237822.1437
 20
1150480.763
 10
238071.7784
 20
1150245.8008
 10
238277.3556
 20
1150084.2637
 10
238541.6761
 20
1149849.3115
 10
238791.3026
 20
1149555.6113
 10
238938.1445
 20
1149305.9621
 10
239129.0441
 20
1149115.061
 10
239275.8861
 20
1148821.3607
 10
239408.0422
 20
1148557.0345
 10
239628.3135
 20
1148366.1334
 10
240156.9463
 20
1148131.1712
 10
240391.8951
 20
1148454.2355
 10
240553.423
 20
1148747.9357
 10
240612.1581
 20
1148938.8468
 10
240759.0001
 20
1149276.5981
 10
240920.528
 20
1149702.4614
  0
LWPOLYLINE
  5
2001B
100
AcDbEntity
  8
0
100
AcDbPolyline
 70
0
 90
28
 10
234529.8585
 20
1142072.6244
 10
234628.5942
 20
1142467.574
 10
234710.8712
 20
1142862.5236
 10
234826.0574
 20
1143290.3866
 10
234858.9666
 20
1143668.8795
 10
234875.4253
 20
1143998.0125
 10
234908.3345
 20
1144360.0488
 10
234957.7023
 20
1144804.3684
 10
235138.7151
 20
1145298.0579
 10
235336.1783
 20
1145804.0849
 10
235484.282
 20
1146108.5229
 10
235591.2388
 20
1146421.1893
 10
235755.7929
 20
1146733.8656
 10
235879.2084
 20
1147013.6187
 10
236002.6322
 20
1147425.025
 10
236043.7707
 20
1147655.4081
 10
236158.9569
 20
1147959.8561
 10
236233.0046
 20
1148157.3259
 10
236257.6927
 20
1148330.1207
 10
236290.6018
 20
1148420.6323
 10
236430.4761
 20
1148774.4403
 10
236455.1559
 20
1148889.6368
 10
236496.2944
 20
1149194.0749
 10
236537.4329
 20
1149375.088
 10
236603.2595
 20
1149506.7412
 10
236603.2595
 20
1149597.2528
 10
236562.121
 20
1149687.7644
 10
236512.7531
 20
1149909.9192
  0
LWPOLYLINE
  5
2001C
100
AcDbEntity
  8
0
100
AcDbPolyline
 70
0
 90
45
 10
234743.7804
 20
1140451.6844
 10
234784.9189
 20
1140665.6208
 10
234809.5987
 20
1140780.8074
 10
234858.9666
 20
1140970.0589
 10
234900.1051
 20
1141109.9404
 10
234957.7023
 20
1141233.3553
 10
235081.1179
 20
1141307.4102
 10
235138.7151
 20
1141373.2368
 10
235204.5334
 20
1141513.1183
 10
235270.36
 20
1141743.5014
 10
235327.949
 20
1142319.4742
 10
235426.6847
 20
1142788.4787
 10
235492.5031
 20
1143043.5468
 10
235533.6416
 20
1143347.9848
 10
235583.0095
 20
1143866.3593
 10
235624.148
 20
1144195.4823
 10
235648.836
 20
1144469.0666
 10
235722.8837
 20
1144831.103
 10
235805.1607
 20
1145172.5734
 10
235924.4616
 20
1145509.9248
 10
235982.0588
 20
1145588.0989
 10
236146.6129
 20
1145707.4046
 10
236237.1193
 20
1145806.1445
 10
236335.855
 20
1145983.0485
 10
236401.6734
 20
1146143.4958
 10
236381.1082
 20
1146328.6281
 10
236344.0844
 20
1146464.3905
 10
236356.4202
 20
1146546.6738
 10
236364.6495
 20
1146682.4361
 10
236418.1321
 20
1146768.8285
 10
236562.121
 20
1146892.2534
 10
236681.4219
 20
1146970.4175
 10
236767.8136
 20
1147056.8199
 10
236825.4026
 20
1147163.7781
 10
236903.5732
 20
1147311.888
 10
236973.5062
 20
1147562.8469
 10
237047.5539
 20
1147694.5001
 10
237138.0602
 20
1147731.5226
 10
237286.1639
 20
1147797.3492
 10
237417.8088
 20
1147854.9475
 10
237380.7767
 20
1147957.7965
 10
237364.3262
 20
1148093.5589
 10
237438.3739
 20
1148258.1254
 10
237557.6748
 20
1148365.0936
 10
237746.9169
 20
1148661.3033
  0
LWPOLYLINE
  5
2001D
100
AcDbEntity
  8
0
100
AcDbPolyline
 70
0
 90
5
 10
249316.628
 20
1145069.5344
 10
249474.3958
 20
1148146.1482
 10
249737.3475
 20
1152274.5978
 10
249895.1153
 20
1155114.5498
 10
249868.8193
 20
1155850.8299
  0
LWPOLYLINE
  5
2001E
100
AcDbEntity
  8
0
100
AcDbPolyline
 70
0
 90
4
 10
250238.9587
 20
1146356.9624
 10
250346.7237
 20
1149504.0118
 10
250734.6989
 20
1152737.2737
 10
250777.8081
 20
1153944.358
  0
LWPOLYLINE
  5
2001F
100
AcDbEntity
  8
0
100
AcDbPolyline
 70
0
 90
22
 10
254420.4676
 20
1151767.3011
 10
254183.3666
 20
1151508.6338
 10
253644.5171
 20
1151443.9669
 10
253256.5419
 20
1151012.8647
 10
253234.9873
 20
1150689.5405
 10
253342.7605
 20
1150086.0033
 10
253321.2058
 20
1149288.4557
 10
253170.3234
 20
1148771.141
 10
252825.4574
 20
1148081.3714
 10
252674.575
 20
1147499.3898
 10
252954.7853
 20
1147197.6113
 10
253062.5502
 20
1146938.9539
 10
253213.4326
 20
1146270.7499
 10
253278.0966
 20
1145818.0921
 10
253170.3234
 20
1145559.4247
 10
252825.4574
 20
1145171.4337
 10
252717.6842
 20
1144330.7848
 10
252609.9193
 20
1143985.905
 10
252415.9276
 20
1143490.1359
 10
251984.8431
 20
1143102.1449
 10
251424.439
 20
1142433.9409
 10
250907.136
 20
1141938.1718
  0
LWPOLYLINE
  5
20020
100
AcDbEntity
  8
0
100
AcDbPolyline
 70
0
 90
29
 10
262869.7039
 20
1162609.5142
 10
262417.0647
 20
1162113.7451
 10
262266.1823
 20
1161747.3097
 10
262115.3081
 20
1161445.5411
 10
261921.3163
 20
1161014.4389
 10
261253.1391
 20
1160540.2254
 10
260843.6092
 20
1160324.6693
 10
260369.4155
 20
1160195.3456
 10
259873.6753
 20
1160130.6788
 10
259442.5908
 20
1160066.0119
 10
258860.6239
 20
1159828.9102
 10
258386.4383
 20
1159570.2428
 10
258364.8837
 20
1159440.9192
 10
258170.892
 20
1159117.585
 10
257933.7992
 20
1158772.7052
 10
257610.4879
 20
1158621.8159
 10
256856.0921
 20
1158082.9456
 10
256317.2344
 20
1157759.6114
 10
255907.7046
 20
1157436.2872
 10
256080.1416
 20
1156746.5276
 10
256187.9066
 20
1156250.7585
 10
256252.5705
 20
1155582.5545
 10
256209.4612
 20
1155280.7759
 10
255907.7046
 20
1154957.4518
 10
255368.8469
 20
1154591.0163
 10
254765.3335
 20
1154030.5804
 10
253730.7357
 20
1153405.4877
 10
253278.0966
 20
1153146.8203
 10
252911.676
 20
1152931.2742
  0
LWPOLYLINE
  5
20021
100
AcDbEntity
  8
0
100
AcDbPolyline
 70
0
 90
5
 10
254183.3666
 20
1154213.8031
 10
254226.4759
 20
1155291.5538
 10
254161.8202
 20
1156714.1942
 10
254097.1563
 20
1157921.2785
 10
253989.3831
 20
1158826.5942
  0
LWPOLYLINE
  5
20022
100
AcDbEntity
  8
0
100
AcDbPolyline
 70
0
 90
12
 10
263009.5534
 20
1164918.9641
 10
263921.9808
 20
1165348.3867
 10
265102.761
 20
1166046.1947
 10
266390.8855
 20
1166744.0026
 10
267625.3379
 20
1167602.8478
 10
268376.7487
 20
1168569.0412
 10
269235.4957
 20
1169588.9136
 10
269933.2343
 20
1170394.0797
 10
270791.9812
 20
1171897.0538
 10
271167.6866
 20
1172648.5408
 10
272026.4336
 20
1174366.2212
 10
272724.1722
 20
1175439.7826
  0
LWPOLYLINE
  5
20023
100
AcDbEntity
  8
0
100
AcDbPolyline
 70
0
 90
10
 10
257535.0219
 20
1146507.5317
 10
259091.5075
 20
1148010.5058
 10
259735.5739
 20
1149513.4799
 10
260540.6487
 20
1151177.4912
 10
262043.462
 20
1154129.7602
 10
262902.209
 20
1155740.0925
 10
264941.7444
 20
1159068.105
 10
266122.5245
 20
1161376.2352
 10
268430.4209
 20
1166421.9382
 10
270094.2509
 20
1170447.7588
  0
LWPOLYLINE
  5
20024
100
AcDbEntity
  8
0
100
AcDbPolyline
 70
0
 90
9
 10
246391.39
 20
1138935.283
 10
250094.7554
 20
1141189.7441
 10
253046.7099
 20
1143175.8199
 10
256589.0504
 20
1145108.2165
 10
257394.1334
 20
1145806.0245
 10
258843.2746
 20
1146664.8697
 10
262492.9677
 20
1148382.5501
 10
269523.9848
 20
1151603.2045
 10
274730.1635
 20
1154072.3819
  0
LWPOLYLINE
  5
20025
100
AcDbEntity
  8
0
100
AcDbPolyline
 70
0
 90
5
 10
268182.188
 20
1165908.2927
 10
266518.358
 20
1164566.3559
 10
264478.8227
 20
1163546.4835
 10
263298.0425
 20
1163063.3818
 10
262976.0093
 20
1162794.9965
  0
LWPOLYLINE
  5
20026
100
AcDbEntity
  8
0
100
AcDbPolyline
 70
0
 90
8
 10
265283.9057
 20
1149643.9733
 10
266249.997
 20
1150878.562
 10
267055.08
 20
1152435.2152
 10
268235.8602
 20
1154528.639
 10
270436.4039
 20
1157212.5227
 10
271831.8729
 20
1159091.2403
 10
272529.6115
 20
1160486.8563
 10
273281.0223
 20
1161775.124
  0
LWPOLYLINE
  5
20027
100
AcDbEntity
  8
0
100
AcDbPolyline
 70
0
 90
9
 10
251007.1745
 20
1137834.897
 10
254603.1955
 20
1141270.2677
 10
256642.7226
 20
1142182.782
 10
257823.511
 20
1143417.3707
 10
259970.3826
 20
1144598.2803
 10
262761.3205
 20
1145940.2172
 10
267216.0884
 20
1147979.972
 10
271724.5368
 20
1150502.8185
 10
276662.3462
 20
1152918.3068
  0
LWPOLYLINE
  5
20028
100
AcDbEntity
  8
0
100
AcDbPolyline
 70
0
 90
37
 10
241032.8116
 20
1145861.0633
 10
241138.9357
 20
1146169.8305
 10
241196.8297
 20
1146295.2649
 10
241274.0108
 20
1146507.5417
 10
241360.8396
 20
1146768.0687
 10
241486.2671
 20
1147134.7341
 10
241582.7435
 20
1147424.2051
 10
241688.8757
 20
1147790.8605
 10
241881.8367
 20
1148244.3682
 10
242132.6836
 20
1148485.5991
 10
242528.2532
 20
1148987.347
 10
242943.1099
 20
1149575.9372
 10
243213.2602
 20
1149865.4082
 10
243454.4594
 20
1150338.212
 10
243608.8299
 20
1150560.1368
 10
243801.7826
 20
1150888.2
 10
244062.2854
 20
1151447.8461
 10
244110.5235
 20
1151737.3172
 10
244245.5905
 20
1151959.242
 10
244409.6086
 20
1152094.3345
 10
244727.9971
 20
1152123.2786
 10
244930.5975
 20
1152219.769
 10
245191.1002
 20
1152721.5169
 10
245277.9289
 20
1153155.7185
 10
245297.2242
 20
1153638.1703
 10
245297.2242
 20
1153773.2628
 10
245326.1671
 20
1154062.7339
 10
245345.4624
 20
1154400.4451
 10
245374.4136
 20
1154574.1298
 10
245490.1852
 20
1155075.8777
 10
245625.2604
 20
1155654.8198
 10
245818.2214
 20
1156117.9755
 10
246049.773
 20
1156764.4639
 10
246223.4304
 20
1157217.9616
 10
246869.8469
 20
1158723.2153
 10
247159.2925
 20
1159234.6112
 10
247236.4736
 20
1159417.9438
  0
LWPOLYLINE
  5
20029
100
AcDbEntity
  8
0
100
AcDbPolyline
 70
0
 90
20
 10
242634.3772
 20
1149189.9757
 10
242634.3772
 20
1149575.9372
 10
242721.206
 20
1149768.9179
 10
242817.6906
 20
1150087.3331
 10
242836.9859
 20
1150598.729
 10
242663.3201
 20
1151168.0231
 10
242480.0068
 20
1151814.5115
 10
242528.2532
 20
1152190.8249
 10
242682.6154
 20
1153059.2281
 10
242817.6906
 20
1153763.6148
 10
242952.7658
 20
1154004.8357
 10
243145.7185
 20
1154612.7219
 10
243213.2602
 20
1154940.7952
 10
243271.1461
 20
1155317.1086
 10
243290.4413
 20
1155712.718
 10
243338.6795
 20
1156050.4293
 10
243386.926
 20
1156407.4466
 10
243435.1642
 20
1156793.4081
 10
243560.5834
 20
1157275.8599
 10
243647.4204
 20
1157854.802
  0
LWPOLYLINE
  5
2002A
100
AcDbEntity
  8
0
100
AcDbPolyline
 70
0
 90
57
 10
241081.0498
 20
1138518.1479
 10
241370.4872
 20
1139193.5805
 10
241698.5234
 20
1139878.661
 10
241852.8938
 20
1140293.5666
 10
242103.7407
 20
1140872.5087
 10
242402.8257
 20
1142020.745
 10
242402.8257
 20
1142657.5854
 10
242393.178
 20
1143091.787
 10
242306.3493
 20
1143497.0445
 10
242451.0639
 20
1144114.5888
 10
242721.206
 20
1144857.5576
 10
243001.004
 20
1145793.5171
 10
243251.8508
 20
1146314.561
 10
243521.9929
 20
1146816.3089
 10
244081.5806
 20
1147366.3069
 10
244361.3704
 20
1147761.9164
 10
244554.3314
 20
1147964.5451
 10
244795.5306
 20
1148254.0162
 10
245113.9109
 20
1148553.1353
 10
245220.0431
 20
1148832.9584
 10
245210.3955
 20
1149006.643
 10
245432.2994
 20
1149373.3084
 10
246107.6588
 20
1150357.5081
 10
246821.6087
 20
1151177.6711
 10
247651.3386
 20
1151775.9094
 10
248124.0893
 20
1151997.8442
 10
248645.0782
 20
1152055.7324
 10
248886.2774
 20
1152596.0824
 10
249359.0364
 20
1153618.8742
 10
249648.4738
 20
1154410.0932
 10
249831.7872
 20
1155027.6375
 10
249937.9112
 20
1155683.7639
 10
250159.8151
 20
1156069.7254
 10
250593.9753
 20
1156803.0561
 10
250700.1076
 20
1157073.2311
 10
251057.0784
 20
1157372.3502
 10
251471.9433
 20
1157748.6636
 10
251992.9323
 20
1158781.1035
 10
252648.9964
 20
1159427.5919
 10
253295.4128
 20
1159958.2839
 10
253980.4199
 20
1160431.0876
 10
254260.2178
 20
1160672.3185
 10
254761.9115
 20
1160932.8355
 10
255543.4032
 20
1161174.0664
 10
256276.6484
 20
1161656.5182
 10
256614.3239
 20
1161868.795
 10
257337.9298
 20
1161762.6566
 10
258196.6025
 20
1161859.1469
 10
258891.2572
 20
1161907.3871
 10
259074.5705
 20
1162013.5255
 10
259942.8909
 20
1162216.1543
 10
260695.4314
 20
1162447.7371
 10
261428.6766
 20
1162901.2348
 10
262403.1293
 20
1163731.0559
 10
262837.2895
 20
1164088.0732
 10
263782.791
 20
1164734.5517
 10
265345.766
 20
1166181.9071
  0
LWPOLYLINE
  5
2002B
100
AcDbEntity
  8
0
100
AcDbPolyline
 70
0
 90
135
 10
252541.3881
 20
1174037.968
 10
252541.3881
 20
1173890.498
 10
252541.3881
 20
1173785.1594
 10
252554.029
 20
1173603.9863
 10
252554.029
 20
1173507.086
 10
252558.2426
 20
1173376.4726
 10
252562.4562
 20
1173271.1341
 10
252566.6699
 20
1173148.9489
 10
252575.0971
 20
1173060.4769
 10
252579.3025
 20
1173001.4889
 10
252575.0971
 20
1172896.1504
 10
252549.8153
 20
1172782.3935
 10
252503.4737
 20
1172689.7024
 10
252469.7647
 20
1172605.4296
 10
252414.9958
 20
1172449.5413
 10
252356.0133
 20
1172310.4996
 10
252322.3043
 20
1172247.3025
 10
252297.0225
 20
1172171.4579
 10
252292.8089
 20
1172032.4162
 10
252292.8089
 20
1171897.5936
 10
252288.6035
 20
1171804.9025
 10
252288.6035
 20
1171703.7831
 10
252292.8089
 20
1171615.3011
 10
252297.0225
 20
1171514.1817
 10
252280.1762
 20
1171286.658
 10
252242.2536
 20
1171139.198
 10
252225.3991
 20
1171050.716
 10
252212.7665
 20
1170920.1026
 10
252191.6983
 20
1170814.7641
 10
252170.6302
 20
1170608.3161
 10
252166.4166
 20
1170524.0532
 10
252141.1431
 20
1170452.4278
 10
252044.2379
 20
1170208.0475
 10
252002.1016
 20
1170102.719
 10
251922.0592
 20
1169870.9862
 10
251816.7268
 20
1169533.9148
 10
251757.7443
 20
1169394.8731
 10
251732.4625
 20
1169314.8294
 10
251719.8216
 20
1169268.4788
 10
251597.643
 20
1169057.8117
 10
251534.4468
 20
1168960.9014
 10
251450.1825
 20
1168859.782
 10
251370.1319
 20
1168746.0251
 10
251146.8344
 20
1168467.9417
 10
250974.1005
 20
1168282.5595
 10
250788.7174
 20
1168017.1235
 10
250708.6667
 20
1167899.1475
 10
250620.1971
 20
1167806.4564
 10
250561.2063
 20
1167739.0401
 10
250514.8647
 20
1167684.2713
 10
250295.7808
 20
1167465.1759
 10
250114.6196
 20
1167288.2119
 10
249903.963
 20
1167043.8416
 10
249710.1527
 20
1166803.6805
 10
249562.6923
 20
1166618.2982
 10
249368.8902
 20
1166340.2148
 10
249162.4472
 20
1166108.482
 10
249019.2004
 20
1165923.0997
 10
248644.2289
 20
1165497.5464
 10
248450.4268
 20
1165265.8135
 10
248163.9332
 20
1164975.1027
 10
247940.6358
 20
1164709.6567
 10
247759.4663
 20
1164524.2745
 10
247595.1596
 20
1164313.6073
 10
247460.3318
 20
1164119.7968
 10
247300.2388
 20
1163921.7671
 10
247224.4017
 20
1163824.8568
 10
247093.7958
 20
1163711.1
 10
247026.3778
 20
1163622.618
 10
247009.5315
 20
1163458.3014
 10
247017.9588
 20
1163298.194
 10
247017.9588
 20
1163117.0209
 10
247005.3179
 20
1162961.1326
 10
246958.968
 20
1162843.1566
 10
246853.6438
 20
1162704.115
 10
246739.8842
 20
1162602.9955
 10
246617.7055
 20
1162463.9538
 10
246520.8003
 20
1162350.197
 10
246419.6898
 20
1162232.221
 10
246263.8021
 20
1162084.761
 10
246200.6059
 20
1161970.9942
 10
246061.5728
 20
1161777.1836
 10
245930.9668
 20
1161570.7356
 10
245754.011
 20
1161313.718
 10
245636.046
 20
1161174.6763
 10
245547.5681
 20
1161081.9851
 10
245438.0303
 20
1160934.5151
 10
245315.8433
 20
1160795.4834
 10
245210.5192
 20
1160631.1569
 10
245134.6821
 20
1160517.4
 10
245063.0587
 20
1160344.6552
 10
245008.2816
 20
1160188.7569
 10
244961.94
 20
1160100.275
 10
244919.8119
 20
1160041.297
 10
244688.0872
 20
1159843.2673
 10
244578.5412
 20
1159767.4227
 10
244456.3625
 20
1159662.0941
 10
244262.5604
 20
1159442.9987
 10
244178.2961
 20
1159329.2419
 10
244064.5447
 20
1159118.5748
 10
243963.4259
 20
1158768.866
 10
243929.7169
 20
1158676.1748
 10
243887.5889
 20
1158583.4837
 10
243744.3421
 20
1158094.7332
 10
243672.7187
 20
1157913.5601
 10
243634.8043
 20
1157757.6718
 10
243462.0621
 20
1157279.4591
 10
243323.0289
 20
1156963.4534
 10
243158.714
 20
1156563.1949
 10
243036.5353
 20
1156213.4861
 10
242922.7756
 20
1155931.1936
 10
242872.2204
 20
1155783.7236
 10
242792.1697
 20
1155434.0248
 10
242733.1872
 20
1155096.9534
 10
242703.6918
 20
1154962.1308
 10
242480.4026
 20
1154608.2128
 10
242282.3786
 20
1154262.7132
 10
242143.3455
 20
1154026.7712
 10
242050.6539
 20
1153807.6758
 10
241953.757
 20
1153529.5924
 10
241869.4927
 20
1153255.7281
 10
241802.0829
 20
1152948.1607
 10
241629.3407
 20
1152366.7191
 10
241540.8711
 20
1152021.2294
 10
241452.3932
 20
1151814.7714
 10
241389.197
 20
1151599.8952
 10
241321.7872
 20
1151355.5249
 10
241220.6685
 20
1151153.2861
 10
241144.8314
 20
1150870.9835
 10
241106.917
 20
1150672.9639
 10
241043.7126
 20
1150133.6536
 10
241005.7982
 20
1149771.3074
 10
240980.5165
 20
1149531.1463
 10
240942.6021
 20
1149269.9194
 10
240917.3203
 20
1149042.4058
  0
LWPOLYLINE
  5
2002C
100
AcDbEntity
  8
0
100
AcDbPolyline
 70
0
 90
12
 10
240918.3758
 20
1149039.5063
 10
240901.5213
 20
1148908.373
 10
240880.9809
 20
1148767.2218
 10
240826.7397
 20
1148286.8995
 10
240809.8852
 20
1148158.3957
 10
240809.8852
 20
1147861.3562
 10
240797.2444
 20
1147638.0516
 10
240734.0482
 20
1147471.6255
 10
240683.4929
 20
1147094.5322
 10
240607.6559
 20
1146907.0404
 10
240554.9897
 20
1146776.427
 10
240477.05
 20
1146601.5726
  0
LWPOLYLINE
  5
2002D
100
AcDbEntity
  8
0
100
AcDbPolyline
 70
0
 90
7
 10
228977.2718
 20
1157979.0167
 10
229769.3429
 20
1161720.4552
 10
230494.0042
 20
1165445.037
 10
231218.6655
 20
1168933.6669
 10
231673.6794
 20
1171276.2801
 10
231977.0275
 20
1172894.1908
 10
232684.8343
 20
1175894.0802
  0
LWPOLYLINE
  5
2002E
100
AcDbEntity
  8
0
100
AcDbPolyline
 70
0
 90
3
 10
226490.4241
 20
1150178.9944
 10
227619.6183
 20
1154476.8796
 10
228007.2554
 20
1155656.6894
  0
LWPOLYLINE
  5
2002F
100
AcDbEntity
  8
0
100
AcDbPolyline
 70
0
 90
2
 10
228765.6752
 20
1155353.3112
 10
228361.1836
 20
1156263.4459
  0
LWPOLYLINE
  5
20030
100
AcDbEntity
  8
0
100
AcDbPolyline
 70
0
 90
5
 10
224395.7735
 20
1138120.5189
 10
224836.6294
 20
1141854.3988
 10
225128.9363
 20
1144849.3492
 10
225579.0769
 20
1147268.1769
 10
226379.064
 20
1150354.5987
  0
LWPOLYLINE
  5
20031
100
AcDbEntity
  8
0
100
AcDbPolyline
 70
0
 90
18
 10
231774.0808
 20
1157587.4464
 10
231538.1342
 20
1157545.315
 10
231293.7521
 20
1157486.317
 10
231125.2153
 20
1157385.1976
 10
230956.6785
 20
1157267.2116
 10
230779.7144
 20
1157005.9648
 10
230687.0147
 20
1156736.2997
 10
230602.7504
 20
1156390.78
 10
230510.0588
 20
1155935.7126
 10
230451.0681
 20
1155564.9181
 10
230425.7863
 20
1155253.1116
 10
230366.7955
 20
1155084.5659
 10
230316.2403
 20
1154764.3311
 10
230231.9677
 20
1154359.8234
 10
230164.558
 20
1154098.5766
 10
230105.5672
 20
1153803.6266
 10
229911.7486
 20
1153289.5713
 10
229726.3573
 20
1153028.3244
  0
LWPOLYLINE
  5
20032
100
AcDbEntity
  8
0
100
AcDbPolyline
 70
0
 90
29
 10
236156.0462
 20
1160092.4365
 10
236038.0646
 20
1160117.7214
 10
235890.5959
 20
1160130.3588
 10
235692.5637
 20
1160130.3588
 10
235540.8814
 20
1160126.1497
 10
235208.0214
 20
1160105.074
 10
235014.2029
 20
1160096.6457
 10
234597.0786
 20
1160062.9426
 10
234415.9009
 20
1160050.2951
 10
234158.8779
 20
1160020.8011
 10
233876.5814
 20
1159999.7354
 10
233556.3623
 20
1159936.5283
 10
233392.0391
 20
1159894.3969
 10
233147.6571
 20
1159826.9806
 10
232979.1202
 20
1159767.9926
 10
232869.5742
 20
1159717.4229
 10
232810.5834
 20
1159675.2915
 10
232726.3192
 20
1159607.8752
 10
232671.542
 20
1159536.2398
 10
232570.4232
 20
1159388.7598
 10
232490.3643
 20
1159241.2898
 10
232418.7327
 20
1159068.525
 10
232385.0319
 20
1158933.6924
 10
232313.4003
 20
1158748.3001
 10
232229.136
 20
1158533.4039
 10
232064.8045
 20
1158196.3125
 10
231917.3359
 20
1157914
 10
231816.2171
 20
1157597.9843
 10
231774.0808
 20
1157496.8549
  0
LWPOLYLINE
  5
20033
100
AcDbEntity
  8
0
100
AcDbPolyline
 70
0
 90
26
 10
236425.0668
 20
1166180.5773
 10
236186.5805
 20
1166369.3689
 10
235878.5323
 20
1166498.5326
 10
235600.2845
 20
1166617.7683
 10
235103.4311
 20
1166846.3018
 10
234537.0159
 20
1166856.2398
 10
234348.2108
 20
1166717.1281
 10
233910.9831
 20
1166329.617
 10
233831.4849
 20
1166041.4756
 10
233692.3693
 20
1165822.8801
 10
233483.6835
 20
1165713.5824
 10
233086.2008
 20
1165634.0886
 10
232837.7782
 20
1165375.7511
 10
232599.2837
 20
1165087.5998
 10
232430.3511
 20
1164769.6445
 10
232191.8648
 20
1164600.7289
 10
232191.8648
 20
1164372.2054
 10
231953.3702
 20
1163944.9524
 10
231784.4458
 20
1163607.1211
 10
231695.0114
 20
1163150.0542
 10
231734.7564
 20
1162772.481
 10
231973.2509
 20
1162235.9302
 10
232330.9804
 20
1161838.4911
 10
232937.1489
 20
1161490.7219
 10
232957.0214
 20
1161470.846
 10
233404.1935
 20
1161361.5482
  0
LWPOLYLINE
  5
20034
100
AcDbEntity
  8
0
100
AcDbPolyline
 70
0
 90
13
 10
238482.0422
 20
1167720.6838
 10
237816.2562
 20
1167690.8699
 10
237528.0804
 20
1167591.5101
 10
237458.535
 20
1167492.1504
 10
237468.463
 20
1167392.7906
 10
237677.1488
 20
1167243.7409
 10
237697.0213
 20
1167054.9593
 10
237617.5149
 20
1166776.746
 10
237518.1524
 20
1166627.7063
 10
237239.9047
 20
1166508.4706
 10
236882.1835
 20
1166419.0488
 10
236584.0632
 20
1166389.2349
 10
236484.6843
 20
1166379.2969
  0
LWPOLYLINE
  5
20035
100
AcDbEntity
  8
0
100
AcDbPolyline
 70
0
 90
4
 10
240837.0883
 20
1174030.1296
 10
238889.4199
 20
1170572.3534
 10
237895.7626
 20
1169101.8127
 10
237259.7772
 20
1167591.5201
  0
LWPOLYLINE
  5
20036
100
AcDbEntity
  8
0
100
AcDbPolyline
 70
0
 90
20
 10
230587.2977
 20
1149803.8108
 10
230528.7027
 20
1149763.529
 10
230466.4466
 20
1149745.2127
 10
230367.5707
 20
1149723.2372
 10
230235.7361
 20
1149712.2594
 10
230180.8105
 20
1149657.3206
 10
230166.1577
 20
1149573.0877
 10
230100.2404
 20
1149459.5608
 10
229994.0422
 20
1149415.6198
 10
229781.6457
 20
1149375.338
 10
229481.365
 20
1149195.8845
 10
229305.5801
 20
1149064.0513
 10
229056.5639
 20
1148910.2327
 10
228858.8203
 20
1148741.7769
 10
228664.7296
 20
1148569.652
 10
228466.9778
 20
1148390.2085
 10
228298.5234
 20
1148170.4732
 10
228122.7467
 20
1147965.395
 10
227924.9949
 20
1147789.6108
 10
227851.7553
 20
1147709.0372
  0
LWPOLYLINE
  5
20037
100
AcDbEntity
  8
0
100
AcDbPolyline
 70
0
 90
5
 10
234807.6197
 20
1141635.1335
 10
233195.3593
 20
1145486.6195
 10
231672.6817
 20
1149308.2516
 10
229224.4575
 20
1154085.2993
 10
228627.3264
 20
1155846.8307
  0
ENDSEC
  0
SECTION
  2
OBJECTS
  0
DICTIONARY
  5
C
330
0
100
AcDbDictionary
281
     1
  3
ACAD_GROUP
350
D
  3
ACAD_LAYOUT
350
1A
  3
ACAD_MLEADERSTYLE
350
43
  3
ACAD_PLOTSETTINGS
350
19
  3
ACAD_PLOTSTYLENAME
350
E
  3
ACAD_TABLESTYLE
350
42
  0
DICTIONARY
  5
D
102
{ACAD_REACTORS
330
C
102
}
330
C
100
AcDbDictionary
281
     1
  0
DICTIONARY
  5
1A
102
{ACAD_REACTORS
330
C
102
}
330
C
100
AcDbDictionary
281
     1
  3
Layout1
350
1E
  3
Model
350
22
  0
DICTIONARY
  5
43
102
{ACAD_REACTORS
330
C
102
}
330
C
100
AcDbDictionary
281
     1
  0
DICTIONARY
  5
19
102
{ACAD_REACTORS
330
C
102
}
330
C
100
AcDbDictionary
281
     1
  0
ACDBDICTIONARYWDFLT
  5
E
102
{ACAD_REACTORS
330
C
102
}
330
C
100
AcDbDictionary
281
     1
  3
Normal
350
F
100
AcDbDictionaryWithDefault
340
F
  0
DICTIONARY
  5
42
102
{ACAD_REACTORS
330
C
102
}
330
C
100
AcDbDictionary
281
     1
  0
LAYOUT
  5
1E
102
{ACAD_REACTORS
330
1A
102
}
330
1A
100
AcDbPlotSettings
  1

  2
none_device
  4

  6

 40
0.0
 41
0.0
 42
0.0
 43
0.0
 44
0.0
 45
0.0
 46
0.0
 47
0.0
 48
0.0
 49
0.0
140
0.0
141
0.0
142
1.0
143
1.0
 70
   688
 72
     0
 73
     0
 74
     5
  7

 75
    16
 76
     0
 77
     2
 78
   300
147
1.0
148
0.0
149
0.0
100
AcDbLayout
  1
Layout1
 70
     1
 71
     1
 10
0.0
 20
0.0
 11
12.0
 21
9.0
 12
0.0
 22
0.0
 32
0.0
 14
1.000000000000000E+20
 24
1.000000000000000E+20
 34
1.000000000000000E+20
 15
-1.000000000000000E+20
 25
-1.000000000000000E+20
 35
-1.000000000000000E+20
146
0.0
 13
0.0
 23
0.0
 33
0.0
 16
1.0
 26
0.0
 36
0.0
 17
0.0
 27
1.0
 37
0.0
 76
     0
330
1B
  0
LAYOUT
  5
22
102
{ACAD_REACTORS
330
1A
102
}
330
1A
100
AcDbPlotSettings
  1

  2
none_device
  4

  6

 40
0.0
 41
0.0
 42
0.0
 43
0.0
 44
0.0
 45
0.0
 46
0.0
 47
0.0
 48
0.0
 49
0.0
140
0.0
141
0.0
142
1.0
143
1.0
 70
  1712
 72
     0
 73
     0
 74
     0
  7

 75
     0
 76
     0
 77
     2
 78
   300
147
1.0
148
0.0
149
0.0
100
AcDbLayout
  1
Model
 70
     1
 71
     0
 10
0.0
 20
0.0
 11
12.0
 21
9.0
 12
0.0
 22
0.0
 32
0.0
 14
30.0
 24
49.75
 34
0.0
 15
130.5
 25
163.1318914119703
 35
0.0
146
0.0
 13
0.0
 23
0.0
 33
0.0
 16
1.0
 26
0.0
 36
0.0
 17
0.0
 27
1.0
 37
0.0
 76
     0
330
1F
331
29
  0
ENDSEC
  0
EOF
