  0
SECTION
  2
HEADER
  9
$ACADVER
  1
AC1018
  9
$ACADMAINTVER
 70
     0
  9
$DWGCODEPAGE
  3
ANSI_1252
  9
$EXTMIN
 10
225590.1599
 20
1138965.9768
 30
0.0
  9
$EXTMAX
 10
262655.6458
 20
1173509.3356
 30
0.0
  9
$LIMMIN
 10
0.0
 20
0.0
  9
$LIMMAX
 10
12.0
 20
9.0
  9
$ORTHOMODE
 70
     0
  9
$REGENMODE
 70
     1
  9
$FILLMODE
 70
     1
  9
$QTEXTMODE
 70
     0
  9
$MIRRTEXT
 70
     1
  9
$LTSCALE
 40
1.0
  9
$ATTMODE
 70
     1
  9
$TEXTSIZE
 40
0.2
  9
$TRACEWID
 40
0.05
  9
$TEXTSTYLE
  7
Standard
  9
$CLAYER
  8
0
  9
$CELTYPE
  6
ByLayer
  9
$CECOLOR
 62
   256
  9
$CELTSCALE
 40
1.0
  9
$DISPSILH
 70
     0
  9
$LUNITS
 70
     2
  9
$LUPREC
 70
     4
  9
$SKETCHINC
 40
0.1
  9
$FILLETRAD
 40
0.5
  9
$AUNITS
 70
     0
  9
$AUPREC
 70
     0
  9
$MENU
  1
.
  9
$ELEVATION
 40
0.0
  9
$PELEVATION
 40
0.0
  9
$THICKNESS
 40
0.0
  9
$LIMCHECK
 70
     0
  9
$CHAMFERA
 40
0.5
  9
$CHAMFERB
 40
0.5
  9
$CHAMFERC
 40
1.0
  9
$CHAMFERD
 40
0.0
  9
$SKPOLY
 70
     0
  9
$ANGBASE
 50
0.0
  9
$ANGDIR
 70
     0
  9
$PDMODE
 70
     0
  9
$PDSIZE
 40
0.0
  9
$PLINEWID
 40
0.0
  9
$SPLFRAME
 70
     0
  9
$SPLINETYPE
 70
     6
  9
$SPLINESEGS
 70
     8
  9
$HANDSEED
  5
00020050
  9
$SURFTAB1
 70
     6
  9
$SURFTAB2
 70
     6
  9
$SURFTYPE
 70
     6
  9
$SURFU
 70
     6
  9
$SURFV
 70
     6
  9
$UCSBASE
  2

  9
$UCSNAME
  2

  9
$UCSORG
 10
0.0
 20
0.0
 30
0.0
  9
$UCSXDIR
 10
1.0
 20
0.0
 30
0.0
  9
$UCSYDIR
 10
0.0
 20
1.0
 30
0.0
  9
$UCSORTHOREF
  2

  9
$UCSORTHOVIEW
 70
     0
  9
$UCSORGTOP
 10
0.0
 20
0.0
 30
0.0
  9
$UCSORGBOTTOM
 10
0.0
 20
0.0
 30
0.0
  9
$UCSORGLEFT
 10
0.0
 20
0.0
 30
0.0
  9
$UCSORGRIGHT
 10
0.0
 20
0.0
 30
0.0
  9
$UCSORGFRONT
 10
0.0
 20
0.0
 30
0.0
  9
$UCSORGBACK
 10
0.0
 20
0.0
 30
0.0
  9
$PUCSBASE
  2

  9
$PUCSNAME
  2

  9
$PUCSORG
 10
0.0
 20
0.0
 30
0.0
  9
$PUCSXDIR
 10
1.0
 20
0.0
 30
0.0
  9
$PUCSYDIR
 10
0.0
 20
1.0
 30
0.0
  9
$PUCSORTHOREF
  2

  9
$PUCSORTHOVIEW
 70
     0
  9
$PUCSORGTOP
 10
0.0
 20
0.0
 30
0.0
  9
$PUCSORGBOTTOM
 10
0.0
 20
0.0
 30
0.0
  9
$PUCSORGLEFT
 10
0.0
 20
0.0
 30
0.0
  9
$PUCSORGRIGHT
 10
0.0
 20
0.0
 30
0.0
  9
$PUCSORGFRONT
 10
0.0
 20
0.0
 30
0.0
  9
$PUCSORGBACK
 10
0.0
 20
0.0
 30
0.0
  9
$WORLDVIEW
 70
     1
  9
$SHADEDGE
 70
     3
  9
$SHADEDIF
 70
    70
  9
$TILEMODE
 70
     1
  9
$MAXACTVP
 70
    64
  9
$PINSBASE
 10
0.0
 20
0.0
 30
0.0
  9
$PLIMCHECK
 70
     0
  9
$PEXTMIN
 10
1.000000000000000E+20
 20
1.000000000000000E+20
 30
1.000000000000000E+20
  9
$PEXTMAX
 10
-1.000000000000000E+20
 20
-1.000000000000000E+20
 30
-1.000000000000000E+20
  9
$PLIMMIN
 10
0.0
 20
0.0
  9
$PLIMMAX
 10
12.0
 20
9.0
  9
$UNITMODE
 70
     0
  9
$VISRETAIN
 70
     1
  9
$PLINEGEN
 70
     0
  9
$PSLTSCALE
 70
     1
  9
$TREEDEPTH
 70
  3020
  9
$CMLSTYLE
  2
Standard
  9
$CMLJUST
 70
     0
  9
$CMLSCALE
 40
1.0
  9
$PROXYGRAPHICS
 70
     1
  9
$MEASUREMENT
 70
     0
  9
$CELWEIGHT
370
    -1
  9
$ENDCAPS
280
     0
  9
$JOINSTYLE
280
     0
  9
$LWDISPLAY
290
     0
  9
$INSUNITS
 70
     1
  9
$HYPERLINKBASE
  1

  9
$STYLESHEET
  1

  9
$XEDIT
290
     1
  9
$CEPSNTYPE
380
     0
  9
$PSTYLEMODE
290
     1
  9
$EXTNAMES
290
     1
  9
$PSVPSCALE
 40
0.0
  9
$OLESTARTUP
290
     0
  9
$SORTENTS
280
   127
  9
$INDEXCTL
280
     0
  9
$HIDETEXT
280
     1
  9
$XCLIPFRAME
290
     0
  9
$HALOGAP
280
     0
  9
$OBSCOLOR
 70
   257
  9
$OBSLTYPE
280
     0
  9
$INTERSECTIONDISPLAY
280
     0
  9
$INTERSECTIONCOLOR
 70
   257
  9
$DIMASSOC
280
     2
  9
$PROJECTNAME
  1

  0
ENDSEC
  0
SECTION
  2
CLASSES
  0
CLASS
  1
ACDBDICTIONARYWDFLT
  2
AcDbDictionaryWithDefault
  3
ObjectDBX Classes
 90
        0
 91
        4
280
     0
281
     0
  0
ENDSEC
  0
SECTION
  2
TABLES
  0
TABLE
  2
VPORT
  5
8
330
0
100
AcDbSymbolTable
 70
     1
  0
VPORT
  5
29
330
8
100
AcDbSymbolTableRecord
100
AcDbViewportTableRecord
  2
*Active
 70
     0
 10
0.0
 20
0.0
 11
1.0
 21
1.0
 12
80.25
 22
106.4409457059851
 13
0.0
 23
0.0
 14
0.5
 24
0.5
 15
0.5
 25
0.5
 16
0.0
 26
0.0
 36
1.0
 17
0.0
 27
0.0
 37
0.0
 40
113.3818914119703
 41
0.8863849310366128
 42
50.0
 43
0.0
 44
0.0
 50
0.0
 51
0.0
 71
     0
 72
  1000
 73
     1
 74
     3
 75
     0
 76
     0
 77
     0
 78
     0
281
     0
 65
     1
110
0.0
120
0.0
130
0.0
111
1.0
121
0.0
131
0.0
112
0.0
122
1.0
132
0.0
 79
     0
146
0.0
  0
ENDTAB
  0
TABLE
  2
LTYPE
  5
5
330
0
100
AcDbSymbolTable
 70
     1
  0
LTYPE
  5
14
330
5
100
AcDbSymbolTableRecord
100
AcDbLinetypeTableRecord
  2
ByBlock
 70
     0
  3

 72
    65
 73
     0
 40
0.0
  0
LTYPE
  5
15
330
5
100
AcDbSymbolTableRecord
100
AcDbLinetypeTableRecord
  2
ByLayer
 70
     0
  3

 72
    65
 73
     0
 40
0.0
  0
LTYPE
  5
16
330
5
100
AcDbSymbolTableRecord
100
AcDbLinetypeTableRecord
  2
Continuous
 70
     0
  3
Solid line
 72
    65
 73
     0
 40
0.0
  0
ENDTAB
  0
TABLE
  2
LAYER
  5
2
330
0
100
AcDbSymbolTable
 70
     1
  0
LAYER
  5
10
330
2
100
AcDbSymbolTableRecord
100
AcDbLayerTableRecord
  2
0
 70
     0
 62
     7
  6
Continuous
370
    -3
390
F
  0
ENDTAB
  0
TABLE
  2
STYLE
  5
3
330
0
100
AcDbSymbolTable
 70
     1
  0
STYLE
  5
11
330
3
100
AcDbSymbolTableRecord
100
AcDbTextStyleTableRecord
  2
Standard
 70
     0
 40
0.0
 41
1.0
 50
0.0
 71
     0
 42
0.2
  3
txt
  4

  0
ENDTAB
  0
TABLE
  2
VIEW
  5
6
330
0
100
AcDbSymbolTable
 70
     0
  0
ENDTAB
  0
TABLE
  2
UCS
  5
7
330
0
100
AcDbSymbolTable
 70
     0
  0
ENDTAB
  0
TABLE
  2
APPID
  5
9
330
0
100
AcDbSymbolTable
 70
     1
  0
APPID
  5
12
330
9
100
AcDbSymbolTableRecord
100
AcDbRegAppTableRecord
  2
ACAD
 70
     0
  0
ENDTAB
  0
TABLE
  2
DIMSTYLE
  5
A
330
0
100
AcDbSymbolTable
 70
     1
100
AcDbDimStyleTable
  0
DIMSTYLE
105
27
330
A
100
AcDbSymbolTableRecord
100
AcDbDimStyleTableRecord
  2
Standard
 70
     0
340
11
  0
ENDTAB
  0
TABLE
  2
BLOCK_RECORD
  5
1
330
0
100
AcDbSymbolTable
 70
     1
  0
BLOCK_RECORD
  5
1F
330
1
100
AcDbSymbolTableRecord
100
AcDbBlockTableRecord
  2
*Model_Space
340
22
  0
BLOCK_RECORD
  5
1B
330
1
100
AcDbSymbolTableRecord
100
AcDbBlockTableRecord
  2
*Paper_Space
340
1E
  0
ENDTAB
  0
ENDSEC
  0
SECTION
  2
BLOCKS
  0
BLOCK
  5
20
330
1F
100
AcDbEntity
  8
0
100
AcDbBlockBegin
  2
*Model_Space
 70
     0
 10
0.0
 20
0.0
 30
0.0
  3
*Model_Space
  1

  0
ENDBLK
  5
21
330
1F
100
AcDbEntity
  8
0
100
AcDbBlockEnd
  0
BLOCK
  5
1C
330
1B
100
AcDbEntity
 67
     1
  8
0
100
AcDbBlockBegin
  2
*Paper_Space
 70
     0
 10
0.0
 20
0.0
 30
0.0
  3
*Paper_Space
  1

  0
ENDBLK
  5
1D
330
1B
100
AcDbEntity
 67
     1
  8
0
100
AcDbBlockEnd
  0
ENDSEC
  0
SECTION
  2
ENTITIES
  0
LWPOLYLINE
  5
20000
100
AcDbEntity
  8
0
100
AcDbPolyline
 70
0
 90
12
 10
229277.4948
 20
1156943.0576
 10
229509.7225
 20
1157051.4355
 10
229873.5456
 20
1157221.7409
 10
230291.5522
 20
1157492.6857
 10
230570.2205
 20
1157601.0637
 10
230748.2565
 20
1157678.4779
 10
230957.264
 20
1157864.2601
 10
231274.6383
 20
1158042.3138
 10
231522.3434
 20
1158220.3576
 10
232118.3943
 20
1158545.4914
 10
232327.3935
 20
1158638.3825
 10
232340.9414
 20
1158651.9298
  0
LWPOLYLINE
  5
20001
100
AcDbEntity
  8
0
100
AcDbPolyline
 70
0
 90
26
 10
232658.3157
 20
1159584.7399
 10
232844.0945
 20
1159685.3794
 10
233045.3591
 20
1159801.4958
 10
233517.5491
 20
1159948.5758
 10
233749.7769
 20
1159987.288
 10
234260.6729
 20
1160064.7022
 10
234616.7532
 20
1160072.4406
 10
234738.9483
 20
1160078.3294
 10
235160.7233
 20
1160237.9269
 10
235616.6937
 20
1160334.8272
 10
236141.0635
 20
1160243.6358
 10
236386.1547
 20
1160306.333
 10
236733.8325
 20
1160266.4311
 10
237611.5861
 20
1159850.3358
 10
238147.3516
 20
1159793.3374
 10
238738.7683
 20
1159844.0771
 10
239288.3703
 20
1159890.5176
 10
239474.1492
 20
1159921.4913
 10
239783.7806
 20
1160215.6515
 10
240116.6406
 20
1160424.6689
 10
240444.3222
 20
1160579.9273
 10
240905.9988
 20
1160779.4267
 10
241629.852
 20
1161007.4203
 10
241755.2465
 20
1161201.2209
 10
242000.3378
 20
1161377.9149
 10
242120.0262
 20
1161463.4175
  0
LWPOLYLINE
  5
20002
100
AcDbEntity
  8
0
100
AcDbPolyline
 70
0
 90
18
 10
225590.1599
 20
1155259.5696
 10
225652.836
 20
1155249.6723
 10
225823.1374
 20
1155180.0065
 10
226039.8795
 20
1155164.5196
 10
226272.1072
 20
1155180.0065
 10
226573.9958
 20
1155218.7086
 10
226752.04
 20
1155288.3844
 10
226891.3701
 20
1155350.3118
 10
227092.6346
 20
1155598.0314
 10
227224.2301
 20
1155698.6609
 10
227371.3112
 20
1155768.3367
 10
227564.8329
 20
1155814.7773
 10
227750.6118
 20
1155923.1552
 10
228029.2801
 20
1156085.7221
 10
228176.3612
 20
1156217.3253
 10
228323.4341
 20
1156333.4417
 10
228416.3235
 20
1156441.8196
 10
228540.1761
 20
1156557.936
  0
LWPOLYLINE
  5
20003
100
AcDbEntity
  8
0
100
AcDbPolyline
 70
0
 90
16
 10
236685.0171
 20
1146597.1535
 10
236752.7484
 20
1146597.1535
 10
236849.5134
 20
1146618.4291
 10
236944.3324
 20
1146651.3025
 10
236990.7812
 20
1146668.7089
 10
237039.1596
 20
1146664.8397
 10
237108.8287
 20
1146660.9705
 10
237184.3029
 20
1146684.1758
 10
237228.814
 20
1146697.713
 10
237315.8984
 20
1146703.5118
 10
237377.8247
 20
1146738.3247
 10
237437.8132
 20
1146753.7916
 10
237478.4569
 20
1146771.198
 10
237528.7731
 20
1146780.8661
 10
237608.1146
 20
1146788.6045
 10
237621.6625
 20
1146790.5341
  0
LWPOLYLINE
  5
20004
100
AcDbEntity
  8
0
100
AcDbPolyline
 70
0
 90
19
 10
236859.1858
 20
1146908.5001
 10
236917.2448
 20
1146951.0414
 10
236977.2333
 20
1147012.9188
 10
237033.3545
 20
1147084.4743
 10
237072.0605
 20
1147117.3476
 10
237106.891
 20
1147144.4221
 10
237137.8541
 20
1147171.4966
 10
237157.2071
 20
1147212.1083
 10
237213.3283
 20
1147250.7804
 10
237275.2546
 20
1147285.5933
 10
237339.1187
 20
1147302.9898
 10
237420.398
 20
1147326.1951
 10
237505.5445
 20
1147333.9335
 10
237608.1146
 20
1147345.5411
 10
237650.6879
 20
1147349.4004
 10
237716.4897
 20
1147353.2696
 10
237807.4414
 20
1147343.6015
 10
237840.3423
 20
1147339.7323
 10
237911.941
 20
1147355.2092
  0
LWPOLYLINE
  5
20005
100
AcDbEntity
  8
0
100
AcDbPolyline
 70
0
 90
11
 10
237119.4741
 20
1148050.4077
 10
237175.5953
 20
1148092.949
 10
237256.8746
 20
1148139.3696
 10
237307.1908
 20
1148166.4341
 10
237444.5913
 20
1148199.3174
 10
237516.1899
 20
1148214.7842
 10
237556.8337
 20
1148253.4563
 10
237634.2457
 20
1148266.9936
 10
237698.1015
 20
1148290.1989
 10
237736.8075
 20
1148311.4745
 10
237789.0614
 20
1148330.8106
  0
LWPOLYLINE
  5
20006
100
AcDbEntity
  8
0
100
AcDbPolyline
 70
0
 90
14
 10
259250.1163
 20
1160257.253
 10
259010.154
 20
1160133.3882
 10
258673.4267
 20
1159990.1774
 10
258383.14
 20
1159819.872
 10
258270.8976
 20
1159703.7557
 10
257999.9721
 20
1159463.7745
 10
257841.2808
 20
1159285.7308
 10
257531.6494
 20
1159053.498
 10
257345.8623
 20
1158867.7058
 10
257059.4511
 20
1158662.5676
 10
256730.4667
 20
1158418.7172
 10
256300.8499
 20
1158163.2592
 10
255844.1373
 20
1157907.8012
 10
255584.822
 20
1157729.7475
  0
LWPOLYLINE
  5
20007
100
AcDbEntity
  8
0
100
AcDbPolyline
 70
0
 90
29
 10
254268.876
 20
1161279.085
 10
253757.9717
 20
1161046.8523
 10
253045.8194
 20
1160613.3505
 10
252937.4442
 20
1160504.9726
 10
252349.1362
 20
1159947.606
 10
251776.3139
 20
1159127.0331
 10
250847.4113
 20
1158074.2373
 10
249924.9899
 20
1156979.6601
 10
249355.1279
 20
1156298.9287
 10
248896.0735
 20
1155206.591
 10
248401.2981
 20
1154312.0131
 10
247859.4389
 20
1153429.5128
 10
247425.9467
 20
1152794.742
 10
246961.4995
 20
1152330.2665
 10
246419.6403
 20
1151834.8274
 10
246187.4126
 20
1151447.7661
 10
245722.9572
 20
1150766.5448
 10
245397.84
 20
1150425.9341
 10
244964.356
 20
1150131.764
 10
244701.1651
 20
1149729.226
 10
244205.7466
 20
1149156.3726
 10
243915.4681
 20
1148788.6674
 10
243776.1298
 20
1148633.8489
 10
243598.0938
 20
1148293.2282
 10
243512.939
 20
1148138.4098
 10
242762.0806
 20
1147364.2873
 10
242158.2952
 20
1146760.4702
 10
242003.4712
 20
1146597.9133
 10
241809.9495
 20
1146350.1937
  0
LWPOLYLINE
  5
20008
100
AcDbEntity
  8
0
100
AcDbPolyline
 70
0
 90
6
 10
250503.5679
 20
1142874.1213
 10
250778.3689
 20
1143206.9935
 10
250906.0887
 20
1143408.2626
 10
251037.6842
 20
1143652.1029
 10
251293.1322
 20
1143981.106
 10
251455.6908
 20
1144159.1597
  0
LWPOLYLINE
  5
20009
100
AcDbEntity
  8
0
100
AcDbPolyline
 70
0
 90
27
 10
244277.9719
 20
1148523.2514
 10
244587.6116
 20
1148755.4942
 10
244897.2431
 20
1149142.5554
 10
245222.3602
 20
1149870.2273
 10
245795.1825
 20
1150164.3874
 10
246368.0048
 20
1150675.3134
 10
246739.5708
 20
1151015.924
 10
247405.2826
 20
1151356.5347
 10
248101.9575
 20
1151929.3781
 10
249046.3458
 20
1152780.9148
 10
249294.0509
 20
1153059.5981
 10
249433.3892
 20
1153462.1361
 10
249526.2786
 20
1154251.7454
 10
249541.7643
 20
1154561.3924
 10
249712.0575
 20
1154963.9304
 10
250241.5809
 20
1156140.6209
 10
250570.4283
 20
1156545.9748
 10
251229.2681
 20
1157379.1888
 10
251647.2747
 20
1158013.9596
 10
252545.2142
 20
1158865.4963
 10
253489.6025
 20
1159763.4735
 10
254186.2774
 20
1160258.9127
 10
255409.334
 20
1160971.0977
 10
256075.054
 20
1161218.8173
 10
257638.7052
 20
1161466.5369
 10
258474.7183
 20
1161605.8785
 10
259465.5472
 20
1161838.1112
  0
LWPOLYLINE
  5
2000A
100
AcDbEntity
  8
0
100
AcDbPolyline
 70
0
 90
4
 10
246277.284
 20
1141591.9923
 10
246505.3559
 20
1141901.5293
 10
246733.4359
 20
1142259.9363
 10
247010.3891
 20
1142650.9167
  0
LWPOLYLINE
  5
2000B
100
AcDbEntity
  8
0
100
AcDbPolyline
 70
0
 90
9
 10
252304.3778
 20
1150460.5671
 10
253459.0928
 20
1151722.4702
 10
254090.0154
 20
1152555.8006
 10
254780.4647
 20
1153281.9928
 10
255435.2012
 20
1153841.5189
 10
256280.4002
 20
1154448.6653
 10
256911.3228
 20
1154805.8026
 10
257780.3358
 20
1155139.1348
 10
258042.2321
 20
1155210.5702
  0
LWPOLYLINE
  5
2000C
100
AcDbEntity
  8
0
100
AcDbPolyline
 70
0
 90
5
 10
251661.5483
 20
1150680.2624
 10
252090.1013
 20
1151168.363
 10
252649.5983
 20
1151739.7867
 10
253149.5768
 20
1152382.6459
 10
253363.8533
 20
1152585.0347
  0
LWPOLYLINE
  5
2000D
100
AcDbEntity
  8
0
100
AcDbPolyline
 70
0
 90
4
 10
256137.5492
 20
1155103.422
 10
256780.3787
 20
1155389.1339
 10
257625.5778
 20
1155698.6609
 10
257994.6123
 20
1155805.8091
  0
LWPOLYLINE
  5
2000E
100
AcDbEntity
  8
0
100
AcDbPolyline
 70
0
 90
15
 10
240803.0824
 20
1144503.4196
 10
240508.9284
 20
1144890.4809
 10
239858.6941
 20
1145571.7022
 10
238109.264
 20
1147197.3513
 10
236917.1706
 20
1148234.6802
 10
235988.268
 20
1148869.451
 10
234245.6242
 20
1149967.4675
 10
233067.1034
 20
1150663.8957
 10
232620.6899
 20
1150931.7512
 10
231692.381
 20
1151583.7585
 10
231358.8448
 20
1151803.7837
 10
230989.8103
 20
1152018.0701
 10
230620.2728
 20
1152299.8227
 10
229544.2891
 20
1153112.6473
 10
228336.7182
 20
1154103.5256
  0
LWPOLYLINE
  5
2000F
100
AcDbEntity
  8
0
100
AcDbPolyline
 70
0
 90
6
 10
255119.8059
 20
1160910.3801
 10
255390.7396
 20
1160593.0347
 10
256040.9739
 20
1160159.5929
 10
257457.5522
 20
1159114.6756
 10
258936.0486
 20
1158201.3415
 10
259586.2829
 20
1157806.5918
  0
LWPOLYLINE
  5
20010
100
AcDbEntity
  8
0
100
AcDbPolyline
 70
0
 90
11
 10
230504.3857
 20
1149300.6832
 10
230462.4144
 20
1149370.589
 10
230418.7279
 20
1149465.6896
 10
230374.9837
 20
1149554.9714
 10
230310.0971
 20
1149659.8501
 10
230219.8134
 20
1149737.7142
 10
230146.714
 20
1149788.3939
 10
230044.6469
 20
1149846.942
 10
229909.7202
 20
1149909.4993
 10
229797.9642
 20
1149966.1577
 10
229640.3202
 20
1150086.9231
  0
LWPOLYLINE
  5
20011
100
AcDbEntity
  8
0
100
AcDbPolyline
 70
0
 90
16
 10
229822.9656
 20
1159452.6868
 10
230202.2662
 20
1159297.8683
 10
230604.7871
 20
1159135.3014
 10
231100.2057
 20
1159019.185
 10
231680.7708
 20
1158957.2476
 10
232137.4834
 20
1158879.8434
 10
232555.49
 20
1158755.9786
 10
233066.386
 20
1158539.2227
 10
233468.9069
 20
1158237.3242
 10
233639.2083
 20
1158028.3067
 10
233941.1052
 20
1157842.5145
 10
234490.7072
 20
1157679.9576
 10
234691.9635
 20
1157571.5797
 10
234753.8898
 20
1157501.9038
 10
235040.3092
 20
1157401.2743
 10
235504.7564
 20
1157130.3295
  0
LWPOLYLINE
  5
20012
100
AcDbEntity
  8
0
100
AcDbPolyline
 70
0
 90
5
 10
232760.7456
 20
1156329.0926
 10
232381.4202
 20
1156592.179
 10
231831.7852
 20
1156963.5934
 10
231057.6571
 20
1157327.2294
 10
230686.0829
 20
1157474.2195
  0
LWPOLYLINE
  5
20013
100
AcDbEntity
  8
0
100
AcDbPolyline
 70
0
 90
10
 10
232590.6008
 20
1154688.2366
 10
232381.5851
 20
1154827.5182
 10
231878.4155
 20
1154982.2267
 10
231352.009
 20
1155253.0216
 10
230717.2357
 20
1155516.0681
 10
230508.2118
 20
1155717.2671
 10
230252.739
 20
1155964.8967
 10
229857.9362
 20
1156197.0195
 10
229501.8312
 20
1156421.4138
 10
229122.5141
 20
1156607.106
  0
LWPOLYLINE
  5
20014
100
AcDbEntity
  8
0
100
AcDbPolyline
 70
0
 90
5
 10
232404.7477
 20
1155477.6559
 10
232064.1284
 20
1155686.5734
 10
231777.7007
 20
1155864.5371
 10
231499.0159
 20
1155988.3219
 10
231173.8823
 20
1156158.5473
  0
LWPOLYLINE
  5
20015
100
AcDbEntity
  8
0
100
AcDbPolyline
 70
0
 90
13
 10
232219.2739
 20
1152157.2717
 10
231925.0952
 20
1152443.5934
 10
231700.5938
 20
1152629.3156
 10
231437.3782
 20
1152931.1142
 10
231197.3912
 20
1153132.3133
 10
230980.6327
 20
1153302.5486
 10
230794.8291
 20
1153550.1882
 10
230655.4578
 20
1153867.4936
 10
230492.8745
 20
1154130.6201
 10
230268.3649
 20
1154471.1308
 10
230028.3614
 20
1154803.903
 10
229811.5946
 20
1155105.7116
 10
229556.1054
 20
1155508.1397
  0
LWPOLYLINE
  5
20016
100
AcDbEntity
  8
0
100
AcDbPolyline
 70
0
 90
16
 10
237870.4726
 20
1144095.6227
 10
237319.2874
 20
1144916.6255
 10
237253.4856
 20
1145026.8531
 10
237162.5339
 20
1145140.9499
 10
237098.6698
 20
1145249.2378
 10
237029.0007
 20
1145351.727
 10
236936.1113
 20
1145492.8982
 10
236856.7698
 20
1145593.4578
 10
236781.2955
 20
1145680.4801
 10
236715.502
 20
1145752.0255
 10
236641.9573
 20
1145868.0519
 10
236551.0056
 20
1145974.4102
 10
236516.1752
 20
1146034.358
 10
236469.7263
 20
1146144.5856
 10
236450.3733
 20
1146210.3322
 10
236401.995
 20
1146255.353
  0
LWPOLYLINE
  5
20017
100
AcDbEntity
  8
0
100
AcDbPolyline
 70
0
 90
11
 10
237102.5454
 20
1145723.0114
 10
237069.6445
 20
1145759.7539
 10
237015.461
 20
1145842.907
 10
236943.8541
 20
1145962.8026
 10
236872.2472
 20
1146084.6378
 10
236831.6117
 20
1146181.3281
 10
236792.9057
 20
1146266.4108
 10
236756.1375
 20
1146314.761
 10
236717.4315
 20
1146336.0266
 10
236669.0531
 20
1146376.6384
 10
236616.7992
 20
1146405.6425
  0
LWPOLYLINE
  5
20018
100
AcDbEntity
  8
0
100
AcDbPolyline
 70
0
 90
23
 10
238116.5946
 20
1148093.8588
 10
238054.6683
 20
1148140.2694
 10
237977.2563
 20
1148209.8852
 10
237930.8157
 20
1148262.1046
 10
237888.2424
 20
1148302.7163
 10
237851.4742
 20
1148335.5896
 10
237793.4152
 20
1148333.65
 10
237785.6724
 20
1148337.5192
 10
237746.9664
 20
1148358.7949
 10
237717.941
 20
1148364.5937
 10
237677.3055
 20
1148352.9961
 10
237601.8313
 20
1148405.2055
 10
237590.2129
 20
1148409.0747
 10
237551.5151
 20
1148432.2799
 10
237532.1621
 20
1148434.2095
 10
237489.5888
 20
1148467.0829
 10
237433.4676
 20
1148499.9562
 10
237379.2759
 20
1148552.1755
 10
237367.6658
 20
1148563.7732
 10
237305.7395
 20
1148571.5116
 10
237259.2906
 20
1148581.1796
 10
237176.0818
 20
1148617.9222
 10
237106.4127
 20
1148641.1274
  0
LWPOLYLINE
  5
20019
100
AcDbEntity
  8
0
100
AcDbPolyline
 70
0
 90
12
 10
252292.644
 20
1157235.4481
 10
252470.68
 20
1157041.9175
 10
252625.4957
 20
1156786.4695
 10
252927.3926
 20
1156554.2467
 10
253229.2894
 20
1156306.5372
 10
253732.4426
 20
1155834.3433
 10
254382.6769
 20
1155129.9267
 10
254839.3895
 20
1154680.958
 10
255288.3592
 20
1154317.1421
 10
255621.2109
 20
1153868.1635
 10
256023.7401
 20
1153186.9721
 10
256503.6729
 20
1152652.8509
  0
LWPOLYLINE
  5
2001A
100
AcDbEntity
  8
0
100
AcDbPolyline
 70
0
 90
3
 10
242408.5565
 20
1140832.3769
 10
242160.8514
 20
1141010.4206
 10
241882.1748
 20
1141265.8886
  0
LWPOLYLINE
  5
2001B
100
AcDbEntity
  8
0
100
AcDbPolyline
 70
0
 90
5
 10
242303.8838
 20
1140003.3756
 10
242059.1224
 20
1140231.7991
 10
241740.9318
 20
1140460.2226
 10
241300.3645
 20
1140794.6945
 10
240688.4569
 20
1141373.9067
  0
LWPOLYLINE
  5
2001C
100
AcDbEntity
  8
0
100
AcDbPolyline
 70
0
 90
4
 10
235775.319
 20
1144809.9073
 10
236299.1116
 20
1144107.5202
 10
236680.0448
 20
1143309.9026
 10
237168.1163
 20
1142440.8595
  0
LWPOLYLINE
  5
2001D
100
AcDbEntity
  8
0
100
AcDbPolyline
 70
0
 90
5
 10
230858.8663
 20
1147238.4729
 10
231668.3526
 20
1146167.051
 10
232001.6744
 20
1145833.7189
 10
232501.6529
 20
1145428.9513
 10
232834.9664
 20
1145214.6649
  0
LWPOLYLINE
  5
2001E
100
AcDbEntity
  8
0
100
AcDbPolyline
 70
0
 90
8
 10
230234.1117
 20
1149549.6225
 10
230226.3771
 20
1149615.4091
 10
230220.572
 20
1149698.6222
 10
230226.3771
 20
1149783.7549
 10
230230.2444
 20
1149839.8734
 10
230239.925
 20
1149882.4448
 10
230245.7301
 20
1149921.1469
 10
230243.7923
 20
1149977.2655
  0
LWPOLYLINE
  5
2001F
100
AcDbEntity
  8
0
100
AcDbPolyline
 70
0
 90
5
 10
226891.9968
 20
1152916.3872
 10
227170.6651
 20
1153551.168
 10
227310.0033
 20
1154046.5972
 10
227464.8191
 20
1154526.5595
 10
227650.5979
 20
1155083.916
  0
LWPOLYLINE
  5
20020
100
AcDbEntity
  8
0
100
AcDbPolyline
 70
0
 90
5
 10
239246.4154
 20
1158133.9552
 10
239138.0403
 20
1157143.0769
 10
239060.6366
 20
1156012.8669
 10
239169.0034
 20
1154480.1089
 10
239246.4154
 20
1153767.9139
  0
LWPOLYLINE
  5
20021
100
AcDbEntity
  8
0
100
AcDbPolyline
 70
0
 90
7
 10
239470.9003
 20
1150880.4516
 10
239563.7897
 20
1151964.221
 10
239776.6645
 20
1152951.2201
 10
240101.7816
 20
1153214.4265
 10
240171.4507
 20
1153555.0372
 10
240179.1853
 20
1153764.0447
 10
240419.1559
 20
1154561.3924
  0
LWPOLYLINE
  5
20022
100
AcDbEntity
  8
0
100
AcDbPolyline
 70
0
 90
4
 10
231869.3698
 20
1145569.9926
 10
231970.0021
 20
1145933.8285
 10
232101.5975
 20
1146367.3303
 10
232186.7441
 20
1146646.0135
  0
LWPOLYLINE
  5
20023
100
AcDbEntity
  8
0
100
AcDbPolyline
 70
0
 90
3
 10
232344.5943
 20
1158641.162
 10
232519.8762
 20
1159207.0768
 10
232675.1207
 20
1159572.6623
  0
LWPOLYLINE
  5
20024
100
AcDbEntity
  8
0
100
AcDbPolyline
 70
0
 90
7
 10
244583.7113
 20
1149634.6352
 10
245313.2706
 20
1151595.4061
 10
245860.4401
 20
1154126.171
 10
245997.2304
 20
1156200.9487
 10
246020.0302
 20
1158435.3139
 10
246179.6203
 20
1159598.0972
 10
246270.8193
 20
1159826.1008
  0
LWPOLYLINE
  5
20025
100
AcDbEntity
  8
0
100
AcDbPolyline
 70
0
 90
4
 10
237977.6109
 20
1159518.2434
 10
237834.7599
 20
1158958.7173
 10
237834.7599
 20
1158101.5818
 10
237882.3714
 20
1156887.2889
  0
LWPOLYLINE
  5
20026
100
AcDbEntity
  8
0
100
AcDbPolyline
 70
0
 90
44
 10
242008.9299
 20
1139697.4279
 10
242024.4156
 20
1139972.202
 10
242051.5032
 20
1140363.0824
 10
242117.3051
 20
1140653.3333
 10
242186.9742
 20
1140870.0592
 10
242295.3411
 20
1141102.2619
 10
242423.0692
 20
1141303.501
 10
242504.3485
 20
1141427.3458
 10
242601.1053
 20
1141640.2024
 10
242667.641
 20
1141722.8856
 10
242895.6303
 20
1141893.8608
 10
242958.3235
 20
1142030.643
 10
243038.1185
 20
1142224.4135
 10
243089.4159
 20
1142435.2806
 10
243100.8199
 20
1142617.6435
 10
243072.314
 20
1142782.9199
 10
243015.3187
 20
1142953.8951
 10
242951.0177
 20
1143068.0818
 10
242968.8039
 20
1143141.7768
 10
243022.9874
 20
1143513.3012
 10
242999.7671
 20
1143675.8481
 10
242953.3182
 20
1143880.9563
 10
242937.8408
 20
1143981.5759
 10
242992.0242
 20
1144295.0521
 10
243015.2445
 20
1144461.4682
 10
243135.2298
 20
1144743.9807
 10
243185.546
 20
1144952.9681
 10
243235.8621
 20
1145204.5169
 10
243270.6925
 20
1145301.2672
 10
243406.1635
 20
1145506.3855
 10
243564.8466
 20
1145750.1959
 10
243719.6623
 20
1145955.3041
 10
243828.0374
 20
1146230.0782
 10
243905.4494
 20
1146559.0312
 10
243990.596
 20
1146918.948
 10
244013.8163
 20
1147131.8046
 10
244052.5223
 20
1147483.973
 10
244153.1546
 20
1147952.2576
 10
244234.4338
 20
1148257.9854
 10
244307.9703
 20
1148521.1519
 10
244381.5067
 20
1148803.6643
 10
244478.2717
 20
1149179.0679
 10
244571.1611
 20
1149496.4133
 10
244586.6386
 20
1149581.556
  0
LWPOLYLINE
  5
20027
100
AcDbEntity
  8
0
100
AcDbPolyline
 70
0
 90
12
 10
254293.6877
 20
1161276.8555
 10
254843.2897
 20
1161524.5351
 10
255981.1915
 20
1161911.5363
 10
256623.683
 20
1162035.3811
 10
257382.2924
 20
1162074.0832
 10
258295.7011
 20
1162267.5838
 10
259015.6127
 20
1162437.8691
 10
259588.4351
 20
1162430.1307
 10
260045.1394
 20
1162546.2271
 10
260796.006
 20
1162894.5362
 10
261562.3418
 20
1163444.0843
 10
262655.6458
 20
1164537.2785
  0
LWPOLYLINE
  5
20028
100
AcDbEntity
  8
0
100
AcDbPolyline
 70
0
 90
9
 10
259278.7789
 20
1160270.6403
 10
259495.5456
 20
1160394.4851
 10
260130.2777
 20
1160626.6878
 10
260919.8668
 20
1160905.3311
 10
261152.078
 20
1161067.868
 10
261601.0477
 20
1161702.5588
 10
262080.9889
 20
1162437.8691
 10
262398.3549
 20
1162902.2746
 10
262653.4482
 20
1163106.5291
  0
LWPOLYLINE
  5
20029
100
AcDbEntity
  8
0
100
AcDbPolyline
 70
0
 90
5
 10
251170.5
 20
1143265.2617
 10
250884.798
 20
1143009.3038
 10
250673.4982
 20
1142806.925
 10
250453.2682
 20
1142539.0695
 10
250188.3952
 20
1142193.8298
  0
LWPOLYLINE
  5
2002A
100
AcDbEntity
  8
0
100
AcDbPolyline
 70
0
 90
25
 10
236324.7314
 20
1147568.9457
 10
236492.1715
 20
1147944.1993
 10
236492.1715
 20
1148110.9753
 10
236464.2676
 20
1148208.2555
 10
236492.1715
 20
1148305.5457
 10
236561.9478
 20
1148430.6303
 10
236659.6281
 20
1148541.8076
 10
236771.2604
 20
1148736.388
 10
236813.1163
 20
1148903.1641
 10
236785.2123
 20
1149083.8373
 10
236715.436
 20
1149250.6134
 10
236687.532
 20
1149375.6979
 10
236631.7242
 20
1149639.7642
 10
236631.7242
 20
1149862.1289
 10
236659.6281
 20
1150056.6993
 10
236701.484
 20
1150209.5782
 10
236729.388
 20
1150376.3542
 10
236813.1163
 20
1150431.9429
 10
237036.3807
 20
1150348.5599
 10
237357.3255
 20
1150153.9895
 10
237734.0946
 20
1149792.643
 10
238110.8307
 20
1149403.4923
 10
238445.744
 20
1149083.8373
 10
238752.7202
 20
1148778.0796
 10
238989.9367
 20
1148597.4063
  0
LWPOLYLINE
  5
2002B
100
AcDbEntity
  8
0
100
AcDbPolyline
 70
0
 90
18
 10
237315.4696
 20
1148708.5937
 10
237399.1979
 20
1149000.4443
 10
237441.0538
 20
1149167.2303
 10
237427.1018
 20
1149236.7162
 10
237594.5419
 20
1149306.2021
 10
237845.7104
 20
1149097.7345
 10
238110.8307
 20
1148708.5937
 10
238431.792
 20
1148277.7514
 10
238766.6722
 20
1147888.6006
 10
239045.7776
 20
1147568.9457
 10
239422.5137
 20
1147346.5809
 10
240050.4512
 20
1147138.1034
 10
240552.821
 20
1147193.702
 10
241097.0138
 20
1147416.0668
 10
241487.7349
 20
1147666.2359
 10
241864.471
 20
1147971.9936
 10
242143.5763
 20
1148347.2373
 10
242659.8651
 20
1148833.6682
  0
LWPOLYLINE
  5
2002C
100
AcDbEntity
  8
0
100
AcDbPolyline
 70
0
 90
9
 10
237692.2305
 20
1152238.7052
 10
238306.1995
 20
1151627.1896
 10
238836.4568
 20
1151265.8332
 10
239478.3463
 20
1151071.2628
 10
239924.8753
 20
1151349.2262
 10
240148.1397
 20
1151668.8811
 10
240315.5963
 20
1152113.6206
 10
240399.3082
 20
1152502.7714
 10
240601.0675
 20
1152974.4454
  0
LWPOLYLINE
  5
2002D
100
AcDbEntity
  8
0
100
AcDbPolyline
 70
0
 90
15
 10
243371.5145
 20
1144360.0588
 10
243441.3073
 20
1143387.1969
 10
243455.2593
 20
1142761.7842
 10
243399.4514
 20
1141886.2024
 10
243315.7066
 20
1141010.6206
 10
243315.7066
 20
1140385.2079
 10
243413.4034
 20
1139954.3656
 10
243734.3316
 20
1139829.2911
 10
244125.0527
 20
1139815.3839
 10
244501.7889
 20
1140232.329
 10
245059.9665
 20
1141010.6206
 10
245576.2554
 20
1141761.1178
 10
246301.8896
 20
1142706.1855
 10
246860.0344
 20
1143317.701
 10
247306.5633
 20
1143901.4222
  0
LWPOLYLINE
  5
2002E
100
AcDbEntity
  8
0
100
AcDbPolyline
 70
0
 90
12
 10
244069.2448
 20
1142775.6813
 10
244013.404
 20
1141969.5854
 10
244055.2599
 20
1141510.9488
 10
244111.1008
 20
1141427.5657
 10
244362.2692
 20
1141552.6503
 10
244850.654
 20
1141983.4926
 10
245087.8705
 20
1142358.7362
 10
245520.4475
 20
1142886.8587
 10
245785.5679
 20
1143331.5982
 10
246022.7843
 20
1143790.2348
 10
246357.6975
 20
1144387.8532
 10
246650.7218
 20
1145041.0602
  0
LWPOLYLINE
  5
2002F
100
AcDbEntity
  8
0
100
AcDbPolyline
 70
0
 90
7
 10
244264.5889
 20
1144693.6109
 10
244334.3487
 20
1145346.828
 10
244404.1251
 20
1145902.7448
 10
244571.5817
 20
1146250.1941
 10
244711.1179
 20
1146722.7279
 10
244711.1179
 20
1147209.1689
 10
244780.8777
 20
1147792.8801
  0
LWPOLYLINE
  5
20030
100
AcDbEntity
  8
0
100
AcDbPolyline
 70
0
 90
12
 10
249176.3992
 20
1152733.6544
 10
249120.5913
 20
1152275.0178
 10
249120.5913
 20
1151538.4177
 10
249092.6874
 20
1150996.388
 10
248967.0867
 20
1150468.2655
 10
248939.1828
 20
1150009.6289
 10
248995.0236
 20
1149342.5147
 10
248953.1347
 20
1148536.4287
 10
249022.9276
 20
1147841.5302
 10
248911.2788
 20
1147368.9864
 10
248506.6058
 20
1146465.6103
 10
248074.0288
 20
1145770.7117
  0
LWPOLYLINE
  5
20031
100
AcDbEntity
  8
0
100
AcDbPolyline
 70
0
 90
9
 10
246999.5953
 20
1146020.8808
 10
247069.3551
 20
1146952.0512
 10
247153.0669
 20
1147549.6696
 10
247292.6196
 20
1148216.7738
 10
247306.5716
 20
1148981.1682
 10
247222.8598
 20
1149537.0951
 10
247208.8748
 20
1150106.9091
 10
247180.9709
 20
1150509.957
 10
247097.2591
 20
1150871.3035
  0
LWPOLYLINE
  5
20032
100
AcDbEntity
  8
0
100
AcDbPolyline
 70
0
 90
18
 10
237315.4696
 20
1154741.0658
 10
237468.966
 20
1154350.3353
 10
237734.0946
 20
1153806.0961
 10
238041.0791
 20
1153485.1414
 10
238389.9278
 20
1153164.1868
 10
238710.8726
 20
1153094.411
 10
239017.8654
 20
1153024.6452
 10
239520.2104
 20
1153261.8669
 10
239729.523
 20
1153582.8316
 10
239869.0591
 20
1153903.7862
 10
240036.5075
 20
1154210.7837
 10
240273.7322
 20
1154545.6956
 10
240580.7167
 20
1154782.9273
 10
240859.7973
 20
1155020.159
 10
241292.3743
 20
1155201.5621
 10
241710.9993
 20
1155452.7509
 10
242101.7122
 20
1155689.9827
 10
242687.7773
 20
1156164.4361
  0
LWPOLYLINE
  5
20033
100
AcDbEntity
  8
0
100
AcDbPolyline
 70
0
 90
6
 10
241313.9702
 20
1143463.9712
 10
241370.9655
 20
1144079.4759
 10
241598.9548
 20
1144660.7876
 10
242203.1196
 20
1145481.4606
 10
242693.2938
 20
1146165.3514
 10
243194.8638
 20
1146803.6514
  0
LWPOLYLINE
  5
20034
100
AcDbEntity
  8
0
100
AcDbPolyline
 70
0
 90
4
 10
228792.7628
 20
1150258.7982
 10
229328.5283
 20
1150606.8173
 10
229845.1634
 20
1150993.5186
 10
230132.1848
 20
1151244.8774
  0
LWPOLYLINE
  5
20035
100
AcDbEntity
  8
0
100
AcDbPolyline
 70
0
 90
11
 10
240642.8657
 20
1156107.2977
 10
241086.0633
 20
1156151.6287
 10
241662.2252
 20
1156484.041
 10
242149.7442
 20
1157171.0312
 10
242748.0627
 20
1158279.0757
 10
243656.631
 20
1159298.4782
 10
244853.268
 20
1160517.3301
 10
245606.7073
 20
1161492.4216
 10
246426.6245
 20
1162955.0439
 10
246869.8304
 20
1164085.2538
 10
247645.4263
 20
1165237.6193
  0
LWPOLYLINE
  5
20036
100
AcDbEntity
  8
0
100
AcDbPolyline
 70
0
 90
5
 10
236720.5402
 20
1162866.3919
 10
237562.6223
 20
1162290.2092
 10
237961.5067
 20
1161979.9623
 10
238293.905
 20
1161802.6684
 10
239180.3085
 20
1161913.4759
  0
LWPOLYLINE
  5
20037
100
AcDbEntity
  8
0
100
AcDbPolyline
 70
0
 90
5
 10
232842.5443
 20
1160029.7893
 10
233706.783
 20
1160406.5326
 10
234260.7801
 20
1160517.3301
 10
234571.0217
 20
1160960.5498
 10
235834.1449
 20
1161159.9993
  0
LWPOLYLINE
  5
20038
100
AcDbEntity
  8
0
100
AcDbPolyline
 70
0
 90
3
 10
240376.9454
 20
1161514.5771
 10
241662.2252
 20
1162799.9155
 10
242149.7442
 20
1163309.6117
  0
LWPOLYLINE
  5
20039
100
AcDbEntity
  8
0
100
AcDbPolyline
 70
0
 90
4
 10
238870.0669
 20
1160251.4042
 10
239800.7835
 20
1160650.303
 10
240576.3877
 20
1160982.7153
 10
241174.7061
 20
1161359.4487
  0
LWPOLYLINE
  5
2003A
100
AcDbEntity
  8
0
100
AcDbPolyline
 70
0
 90
2
 10
225839.9837
 20
1155774.8854
 10
227479.8183
 20
1156373.2336
  0
LWPOLYLINE
  5
2003B
100
AcDbEntity
  8
0
100
AcDbPolyline
 70
0
 90
3
 10
226083.7391
 20
1156461.8755
 10
227571.8831
 20
1156904.5554
 10
228698.62
 20
1157326.1596
  0
LWPOLYLINE
  5
2003C
100
AcDbEntity
  8
0
100
AcDbPolyline
 70
0
 90
3
 10
238504.4214
 20
1160838.6647
 10
239656.7451
 20
1161481.3338
 10
240210.7422
 20
1161946.7191
  0
LWPOLYLINE
  5
2003D
100
AcDbEntity
  8
0
100
AcDbPolyline
 70
0
 90
2
 10
235944.9443
 20
1162179.4018
 10
236875.661
 20
1161625.3845
  0
LWPOLYLINE
  5
2003E
100
AcDbEntity
  8
0
100
AcDbPolyline
 70
0
 90
2
 10
233817.5824
 20
1160938.3944
 10
233950.5467
 20
1160960.5498
  0
LWPOLYLINE
  5
2003F
100
AcDbEntity
  8
0
100
AcDbPolyline
 70
0
 90
4
 10
232487.9813
 20
1160672.4585
 10
233130.6211
 20
1160672.4585
 10
233418.7062
 20
1160716.7795
 10
233817.5824
 20
1160916.2289
  0
LWPOLYLINE
  5
20040
100
AcDbEntity
  8
0
100
AcDbPolyline
 70
0
 90
24
 10
246258.4423
 20
1167552.928
 10
246514.4593
 20
1167614.7054
 10
246813.0327
 20
1167714.2327
 10
247092.8431
 20
1167824.054
 10
247441.4241
 20
1167958.0455
 10
247681.741
 20
1168103.9558
 10
247786.5787
 20
1168190.9181
 10
247870.5708
 20
1168275.6209
 10
248033.6489
 20
1168550.295
 10
248102.312
 20
1168799.2143
 10
248196.7187
 20
1169425.7968
 10
248213.8865
 20
1169940.7919
 10
248205.3026
 20
1170361.3763
 10
248170.9752
 20
1170636.0404
 10
248166.8565
 20
1170990.2243
 10
248241.0723
 20
1171390.9843
 10
248394.8318
 20
1171787.8519
 10
248574.3815
 20
1172188.4243
 10
248677.369
 20
1172404.2105
 10
248891.9423
 20
1172756.1289
 10
249080.7639
 20
1172944.9605
 10
249252.4259
 20
1173150.9585
 10
249509.9189
 20
1173417.0444
 10
249638.3314
 20
1173509.3356
  0
LWPOLYLINE
  5
20041
100
AcDbEntity
  8
0
100
AcDbPolyline
 70
0
 90
6
 10
243572.6059
 20
1167955.576
 10
243727.3639
 20
1167884.1406
 10
244167.8239
 20
1167907.9557
 10
244417.8132
 20
1168062.7142
 10
244763.0337
 20
1168360.3336
 10
245084.4485
 20
1168681.7682
  0
LWPOLYLINE
  5
20042
100
AcDbEntity
  8
0
100
AcDbPolyline
 70
0
 90
5
 10
243620.2256
 20
1167407.9575
 10
243905.9277
 20
1167277.0042
 10
244310.6749
 20
1167431.7627
 10
244858.2649
 20
1167705.5769
 10
245227.2995
 20
1167967.4736
  0
LWPOLYLINE
  5
20043
100
AcDbEntity
  8
0
100
AcDbPolyline
 70
0
 90
6
 10
243477.3746
 20
1166806.7599
 10
243655.9384
 20
1166747.242
 10
243977.3532
 20
1166794.8623
 10
244298.7679
 20
1166997.2411
 10
244536.8502
 20
1167175.8147
 10
244810.6534
 20
1167282.9529
  0
LWPOLYLINE
  5
20044
100
AcDbEntity
  8
0
100
AcDbPolyline
 70
0
 90
7
 10
248858.0931
 20
1163983.8445
 10
249405.6914
 20
1163436.2259
 10
249893.7629
 20
1163043.3659
 10
250310.4172
 20
1162614.7931
 10
250572.3052
 20
1162412.4143
 10
250977.0525
 20
1162174.3228
 10
251441.3183
 20
1162031.4619
  0
LWPOLYLINE
  5
20045
100
AcDbEntity
  8
0
100
AcDbPolyline
 70
0
 90
5
 10
254893.5564
 20
1162465.9834
 10
254298.3384
 20
1162335.0301
 10
253357.9081
 20
1162037.4107
 10
252441.2753
 20
1161382.6539
 10
251441.3183
 20
1160251.7041
  0
LWPOLYLINE
  5
20046
100
AcDbEntity
  8
0
100
AcDbPolyline
 70
0
 90
6
 10
259857.6289
 20
1141727.8846
 10
260286.1819
 20
1141894.5507
 10
260667.1152
 20
1141965.9761
 10
261309.9447
 20
1141870.7355
 10
262119.4392
 20
1141608.8388
 10
262643.2235
 20
1141275.4967
  0
LWPOLYLINE
  5
20047
100
AcDbEntity
  8
0
100
AcDbPolyline
 70
0
 90
6
 10
259643.3524
 20
1140751.6933
 10
260476.6527
 20
1140942.1645
 10
261000.4369
 20
1140894.5442
 10
261738.4977
 20
1140656.4527
 10
262190.8647
 20
1140299.3054
 10
262595.6038
 20
1139918.3529
  0
LWPOLYLINE
  5
20048
100
AcDbEntity
  8
0
100
AcDbPolyline
 70
0
 90
4
 10
260690.9292
 20
1140251.6951
 10
261238.5192
 20
1140037.4087
 10
261928.9685
 20
1139632.6411
 10
262643.2235
 20
1138965.9768
  0
LWPOLYLINE
  5
20049
100
AcDbEntity
  8
0
100
AcDbPolyline
 70
0
 90
11
 10
251542.503
 20
1143630.1174
 10
251994.87
 20
1144165.7484
 10
252161.5185
 20
1144510.9381
 10
252482.9415
 20
1145736.9586
 10
252554.3671
 20
1146213.0817
 10
252506.7555
 20
1146689.2147
 10
252387.702
 20
1147260.5584
 10
252387.702
 20
1147653.3585
 10
252578.1811
 20
1148272.3225
 10
252709.1251
 20
1148772.2507
 10
253042.4386
 20
1149391.2048
  0
LWPOLYLINE
  5
2004A
100
AcDbEntity
  8
0
100
AcDbPolyline
 70
0
 90
13
 10
251792.4923
 20
1146064.3719
 10
251744.8808
 20
1145397.7076
 10
251268.708
 20
1144754.8485
 10
251032.7367
 20
1144546.6309
 10
250459.2217
 20
1144040.5639
 10
250021.9528
 20
1143530.3977
 10
249744.9667
 20
1143207.2235
 10
248935.4721
 20
1142540.5592
 10
248735.4197
 20
1142398.0882
 10
248283.6134
 20
1142076.3337
 10
247590.2863
 20
1141582.3142
 10
247316.4996
 20
1141260.9296
 10
246828.4198
 20
1140356.3038
  0
LWPOLYLINE
  5
2004B
100
AcDbEntity
  8
0
100
AcDbPolyline
 70
0
 90
12
 10
242873.3583
 20
1154849.5337
 10
242259.9087
 20
1154475.4599
 10
241676.3915
 20
1153906.8756
 10
241047.9757
 20
1153113.847
 10
240673.9278
 20
1152246.0037
 10
240509.3407
 20
1151527.7899
 10
240240.0232
 20
1151004.0965
 10
239836.0428
 20
1150630.0226
 10
239387.1802
 20
1150510.327
 10
238803.6548
 20
1150824.543
 10
238235.0956
 20
1151273.4216
 10
237666.5364
 20
1151782.1581
  0
LWPOLYLINE
  5
2004C
100
AcDbEntity
  8
0
100
AcDbPolyline
 70
0
 90
6
 10
243712.8924
 20
1140309.8432
 10
244084.4502
 20
1141424.5763
 10
244920.4634
 20
1142817.9927
 10
245663.5871
 20
1145419.0333
 10
246035.1531
 20
1147772.3643
 10
245942.2636
 20
1150187.6126
  0
LWPOLYLINE
  5
2004D
100
AcDbEntity
  8
0
100
AcDbPolyline
 70
0
 90
4
 10
237736.9477
 20
1148670.3415
 10
237458.2711
 20
1149382.5265
 10
236869.9714
 20
1150311.4774
 10
236467.4422
 20
1150744.9792
  0
LWPOLYLINE
  5
2004E
100
AcDbEntity
  8
0
100
AcDbPolyline
 70
0
 90
5
 10
238882.5923
 20
1153965.3137
 10
239068.3712
 20
1152448.0425
 10
239594.7529
 20
1150156.649
 10
239904.3843
 20
1148763.2326
 10
240802.3238
 20
1146967.2781
  0
LWPOLYLINE
  5
2004F
100
AcDbEntity
  8
0
100
AcDbPolyline
 70
0
 90
8
 10
249961.2824
 20
1141118.4496
 10
252017.1633
 20
1142236.941
 10
253525.2913
 20
1143110.0677
 10
255708.1082
 20
1144459.4454
 10
257613.112
 20
1145769.1355
 10
259319.6779
 20
1146840.7002
 10
261819.9954
 20
1148269.453
 10
262643.3917
 20
1148688.8395
  0
ENDSEC
  0
SECTION
  2
OBJECTS
  0
DICTIONARY
  5
C
330
0
100
AcDbDictionary
281
     1
  3
ACAD_GROUP
350
D
  3
ACAD_LAYOUT
350
1A
  3
ACAD_MLEADERSTYLE
350
43
  3
ACAD_PLOTSETTINGS
350
19
  3
ACAD_PLOTSTYLENAME
350
E
  3
ACAD_TABLESTYLE
350
42
  0
DICTIONARY
  5
D
102
{ACAD_REACTORS
330
C
102
}
330
C
100
AcDbDictionary
281
     1
  0
DICTIONARY
  5
1A
102
{ACAD_REACTORS
330
C
102
}
330
C
100
AcDbDictionary
281
     1
  3
Layout1
350
1E
  3
Model
350
22
  0
DICTIONARY
  5
43
102
{ACAD_REACTORS
330
C
102
}
330
C
100
AcDbDictionary
281
     1
  0
DICTIONARY
  5
19
102
{ACAD_REACTORS
330
C
102
}
330
C
100
AcDbDictionary
281
     1
  0
ACDBDICTIONARYWDFLT
  5
E
102
{ACAD_REACTORS
330
C
102
}
330
C
100
AcDbDictionary
281
     1
  3
Normal
350
F
100
AcDbDictionaryWithDefault
340
F
  0
DICTIONARY
  5
42
102
{ACAD_REACTORS
330
C
102
}
330
C
100
AcDbDictionary
281
     1
  0
LAYOUT
  5
1E
102
{ACAD_REACTORS
330
1A
102
}
330
1A
100
AcDbPlotSettings
  1

  2
none_device
  4

  6

 40
0.0
 41
0.0
 42
0.0
 43
0.0
 44
0.0
 45
0.0
 46
0.0
 47
0.0
 48
0.0
 49
0.0
140
0.0
141
0.0
142
1.0
143
1.0
 70
   688
 72
     0
 73
     0
 74
     5
  7

 75
    16
 76
     0
 77
     2
 78
   300
147
1.0
148
0.0
149
0.0
100
AcDbLayout
  1
Layout1
 70
     1
 71
     1
 10
0.0
 20
0.0
 11
12.0
 21
9.0
 12
0.0
 22
0.0
 32
0.0
 14
1.000000000000000E+20
 24
1.000000000000000E+20
 34
1.000000000000000E+20
 15
-1.000000000000000E+20
 25
-1.000000000000000E+20
 35
-1.000000000000000E+20
146
0.0
 13
0.0
 23
0.0
 33
0.0
 16
1.0
 26
0.0
 36
0.0
 17
0.0
 27
1.0
 37
0.0
 76
     0
330
1B
  0
LAYOUT
  5
22
102
{ACAD_REACTORS
330
1A
102
}
330
1A
100
AcDbPlotSettings
  1

  2
none_device
  4

  6

 40
0.0
 41
0.0
 42
0.0
 43
0.0
 44
0.0
 45
0.0
 46
0.0
 47
0.0
 48
0.0
 49
0.0
140
0.0
141
0.0
142
1.0
143
1.0
 70
  1712
 72
     0
 73
     0
 74
     0
  7

 75
     0
 76
     0
 77
     2
 78
   300
147
1.0
148
0.0
149
0.0
100
AcDbLayout
  1
Model
 70
     1
 71
     0
 10
0.0
 20
0.0
 11
12.0
 21
9.0
 12
0.0
 22
0.0
 32
0.0
 14
30.0
 24
49.75
 34
0.0
 15
130.5
 25
163.1318914119703
 35
0.0
146
0.0
 13
0.0
 23
0.0
 33
0.0
 16
1.0
 26
0.0
 36
0.0
 17
0.0
 27
1.0
 37
0.0
 76
     0
330
1F
331
29
  0
ENDSEC
  0
EOF
